<?xml version="1.0" encoding="UTF-8"?>
<svg version="1.1" xmlns="http://www.w3.org/2000/svg" width="200" height="200">
<path d="M0 0 C18.94117633 15.97740763 32.74939967 38.83762192 35.4375 63.75 C37.58547278 94.94025688 31.236838 120.91505546 10.87109375 145.05859375 C-5.70446543 163.39015117 -28.90857263 176.25876359 -53.80273438 177.97314453 C-84.58557083 179.34538109 -110.0029718 172.46225422 -133.359375 151.75390625 C-150.95103556 135.58587887 -163.1394356 112.56726348 -164.78198242 88.53930664 C-165.87606958 57.01262331 -159.07549575 31.54206111 -137.5625 7.75 C-100.48858726 -30.35533536 -41.29997336 -32.41701819 0 0 Z M-134.4765625 15.421875 C-153.08766113 36.1938128 -158.8967613 61.51624441 -157.5625 88.75 C-155.43048579 112.39269868 -141.93272455 134.16058839 -124.5625 149.75 C-103.92262849 166.7390361 -77.56014326 173.05340274 -51.28857422 170.53173828 C-27.73252897 167.32748541 -5.60299595 153.84252692 9.2734375 135.484375 C25.00958753 113.98067677 31.55157966 88.97376138 27.94140625 62.43359375 C23.57967222 38.80137377 10.32352125 16.46543277 -9.1875 2.1875 C-49.97409494 -24.89882114 -100.1692854 -19.9687898 -134.4765625 15.421875 Z " fill="#000000" transform="translate(164.5625,22.25)"/>
<path d="M0 0 C2.475 1.98 2.475 1.98 5 4 C3.40584497 7.91209308 0.86106668 10.37218086 -2.125 13.3125 C-2.62 13.80105469 -3.115 14.28960937 -3.625 14.79296875 C-6.93798687 18.03729268 -10.36161951 21.10534553 -13.890625 24.109375 C-17.58504045 27.42066589 -21.0174619 31.00071817 -24.484375 34.546875 C-27 37 -27 37 -31 40 C23.45 40.495 23.45 40.495 79 41 C79 43.64 79 46.28 79 49 C24.55 49.495 24.55 49.495 -31 50 C-27.04 53.63 -23.08 57.26 -19 61 C-14.25 65.75 -14.25 65.75 -12.0859375 67.9453125 C-9.47020562 70.52185739 -6.71585447 72.90402639 -3.9296875 75.29296875 C-0.81053864 78.05221581 2.09751222 81.01587975 5 84 C3.63016497 87.16115776 3.0109362 87.9927092 0 90 C-6.08917441 84.63634424 -11.931061 79.10873886 -17.6328125 73.3359375 C-20.29928043 70.70467047 -23.09163047 68.27650943 -25.9375 65.84375 C-29.28102219 62.8548438 -32.38259893 59.62886982 -35.5234375 56.4296875 C-38.39969596 53.60786926 -41.43614591 51.06010657 -44.6015625 48.5703125 C-46 47 -46 47 -46 43 C-44.55053711 41.18823242 -44.55053711 41.18823242 -42.52734375 39.35546875 C-41.79193359 38.67806641 -41.05652344 38.00066406 -40.29882812 37.30273438 C-39.1299707 36.25569336 -39.1299707 36.25569336 -37.9375 35.1875 C-36.42482423 33.80703753 -34.91309603 32.42553599 -33.40234375 31.04296875 C-32.66129395 30.3689502 -31.92024414 29.69493164 -31.15673828 29.00048828 C-28.52477352 26.55920242 -25.99952004 24.02508815 -23.47680664 21.47192383 C-21.80514281 19.80578708 -20.06148525 18.2623409 -18.25 16.75 C-13.72229017 12.86024537 -9.58844481 8.62005992 -5.41796875 4.35546875 C-3 2 -3 2 0 0 Z " fill="#000000" transform="translate(84,55)"/>
</svg>
