<?xml version="1.0" encoding="UTF-8"?>
<svg version="1.1" xmlns="http://www.w3.org/2000/svg" width="200" height="200">
<path d="M0 0 C18.94117633 15.97740763 32.74939967 38.83762192 35.4375 63.75 C37.5749489 94.78744174 31.35947466 120.9787314 10.89624023 144.90600586 C-5.47567172 163.37145648 -28.90636525 176.26959051 -53.77319336 177.96948242 C-85.29987669 179.06356958 -110.77043889 172.26299575 -134.5625 150.75 C-153.68923272 132.14098335 -164.3546023 108.02583084 -165.03320312 81.41601562 C-165.27144065 51.60455952 -156.06340132 26.76560955 -135.03515625 5.15234375 C-97.49103665 -30.51732641 -40.30425919 -31.63546601 0 0 Z M-134.4765625 15.421875 C-153.06869128 36.17264045 -158.93589486 61.53315339 -157.5625 88.75 C-155.28734463 112.45335243 -142.03487482 134.09522122 -124.5625 149.75 C-103.39187551 166.90550606 -78.20031322 172.97175009 -51.32080078 170.54785156 C-27.69975505 167.4981185 -5.70198145 153.71307214 9.2734375 135.51953125 C24.92090122 114.38483477 31.48544873 88.48760024 27.94140625 62.43359375 C23.57967222 38.80137377 10.32352125 16.46543277 -9.1875 2.1875 C-49.97409494 -24.89882114 -100.1692854 -19.9687898 -134.4765625 15.421875 Z " fill="#000000" transform="translate(164.5625,22.25)"/>
<path d="M0 0 C5.18785402 3.15261898 9.16389207 6.96435843 13.375 11.3125 C17.82094572 15.83611358 22.26276761 20.23908156 27.11328125 24.33203125 C30.41025069 27.24674336 33.44173856 30.43136838 36.5234375 33.5703125 C39.39969596 36.39213074 42.43614591 38.93989343 45.6015625 41.4296875 C47 43 47 43 47 47 C45.55053711 48.81176758 45.55053711 48.81176758 43.52734375 50.64453125 C42.79193359 51.32193359 42.05652344 51.99933594 41.29882812 52.69726562 C40.1299707 53.74430664 40.1299707 53.74430664 38.9375 54.8125 C37.42482423 56.19296247 35.91309603 57.57446401 34.40234375 58.95703125 C33.66129395 59.6310498 32.92024414 60.30506836 32.15673828 60.99951172 C29.52477352 63.44079758 26.99952004 65.97491185 24.47680664 68.52807617 C22.80514281 70.19421292 21.06148525 71.7376591 19.25 73.25 C14.73761586 77.11901687 10.6403061 81.37254011 6.515625 85.64453125 C4.34949635 87.6727542 2.71868733 88.90109134 0 90 C-1.32 88.68 -2.64 87.36 -4 86 C-2.40584497 82.08790692 0.13893332 79.62781914 3.125 76.6875 C3.62 76.19894531 4.115 75.71039063 4.625 75.20703125 C7.93798687 71.96270732 11.36161951 68.89465447 14.890625 65.890625 C18.58504045 62.57933411 22.0174619 58.99928183 25.484375 55.453125 C28 53 28 53 32 50 C-4.3 49.67 -40.6 49.34 -78 49 C-78 46.36 -78 43.72 -78 41 C-41.7 40.67 -5.4 40.34 32 40 C28.04 36.37 24.08 32.74 20 29 C15.25 24.25 15.25 24.25 13.0859375 22.0546875 C10.47020562 19.47814261 7.71585447 17.09597361 4.9296875 14.70703125 C1.81053864 11.94778419 -1.09751222 8.98412025 -4 6 C-2.84826645 3.53199953 -1.95216435 1.95216435 0 0 Z " fill="#000000" transform="translate(115,55)"/>
</svg>
