<?xml version="1.0" encoding="UTF-8"?>
<svg version="1.1" xmlns="http://www.w3.org/2000/svg" width="1529" height="1520">
<path d="M0 0 C1.57394531 1.15048828 1.57394531 1.15048828 3.1796875 2.32421875 C10.91211966 8.07306933 18.02171847 14.36557582 25 21 C25.68320313 21.61875 26.36640625 22.2375 27.0703125 22.875 C67.82733264 61.07404816 81.37524933 122.92560272 83.11376953 176.50634766 C84.57550542 243.24056666 70.71469427 310.49695463 51 374 C50.77717346 374.7209082 50.55434692 375.44181641 50.32476807 376.18457031 C37.03224986 419.13016612 20.87804489 461.03738819 4.54660034 502.90011597 C-31.18774664 592.02432599 -31.18774664 592.02432599 -54 685 C-54.19698486 686.19689453 -54.19698486 686.19689453 -54.39794922 687.41796875 C-60.10605991 724.11639711 -61.29382612 779.9859127 -39.0625 811.5 C-36.18593178 815.00487128 -32.95311704 818.71236084 -29 821 C-25.18430243 819.72810081 -24.74299897 818.43372543 -22.625 815.0625 C-19.15078429 809.69210063 -15.51492432 804.4830183 -11.75 799.3125 C-7.45647076 793.40470804 -3.19899188 787.47538132 1 781.5 C10.09130593 768.58101196 19.38110287 755.81064108 28.76904297 743.10595703 C32.71398785 737.76186296 36.61944818 732.39099923 40.5 727 C47.84003533 716.80643537 55.30454606 706.70598373 62.77050781 696.60449219 C69.099734 688.03854332 75.40594166 679.45887115 81.625 670.8125 C86.15170536 664.52140061 90.7503164 658.2913639 95.41503906 652.10205078 C99.26756139 646.98758205 103.07965275 641.84452468 106.875 636.6875 C107.45725342 635.89657959 108.03950684 635.10565918 108.6394043 634.29077148 C111.6455423 630.20525253 114.64798791 626.11704162 117.6484375 622.02734375 C121.08737206 617.34294969 124.53650291 612.66626535 128 608 C128.6798999 607.08395996 128.6798999 607.08395996 129.37353516 606.14941406 C136.15667031 597.0548533 143.45817537 588.4703349 151 580 C151.69053467 579.22052002 151.69053467 579.22052002 152.39501953 578.42529297 C159.39988035 570.55480757 166.81388978 563.0848456 174.25 555.625 C174.72194794 555.15037323 175.19389587 554.67574646 175.68014526 554.18673706 C180.73349826 549.11162937 185.82851121 544.15173729 191.26611328 539.48876953 C193.66890159 537.42566011 195.98640516 535.27383412 198.3125 533.125 C202.74631311 529.08597847 207.28054584 525.22493122 211.94921875 521.4609375 C214.17288674 519.66719764 216.38198478 517.86127617 218.58203125 516.0390625 C228.77123327 507.62695665 239.26166238 499.69694773 250 492 C250.91233398 491.34563965 251.82466797 490.6912793 252.76464844 490.01708984 C265.08798903 481.21862124 277.59074359 472.95211642 290.68603516 465.34960938 C292.91973923 464.04681172 295.13941507 462.72318036 297.35546875 461.390625 C367.28204468 419.43952928 367.28204468 419.43952928 394 422 C400.69345163 423.82443039 405.15519152 428.40158375 409 434 C419.77115904 453.06324179 416.83692985 474.71564315 411.51123047 495.01586914 C402.94822054 525.56212967 386.57283799 554.72719253 370.71875 582.02880859 C368.82767237 585.2979016 366.95846778 588.57911773 365.09375 591.86328125 C358.92676665 602.71587315 352.71130842 613.53170344 346.3125 624.25 C335.61564818 642.22456637 326.0161146 660.81802605 316.22753906 679.29663086 C312.2096132 686.87644928 308.14154522 694.42429374 304 701.9375 C296.39051275 715.78803241 289.2226238 729.86927778 282.04742432 743.94805908 C281.04024583 745.92115702 280.02938612 747.89231668 279.01708984 749.86279297 C241.50992356 822.92522563 210.15987871 905.70763404 208.75 997.4375 C208.74932526 998.18400818 208.74865051 998.93051636 208.74795532 999.699646 C208.78420548 1025.05782013 211.46160389 1051.58343989 229.7109375 1070.83984375 C237.70309382 1078.38192984 247.23200331 1081.58399672 258.125 1081.4375 C258.95193359 1081.42775146 259.77886719 1081.41800293 260.63085938 1081.40795898 C298.64634374 1080.32714095 331.46055687 1048.52510171 356.8125 1023.3125 C357.51818115 1022.61157227 358.2238623 1021.91064453 358.95092773 1021.18847656 C363.50338687 1016.62151059 367.8221322 1011.91116842 372 1007 C372.53874756 1006.36795654 373.07749512 1005.73591309 373.63256836 1005.0847168 C382.93398324 994.08857039 391.59392808 982.69035068 400 971 C400.51804199 970.28344238 401.03608398 969.56688477 401.56982422 968.82861328 C426.42830333 934.38768157 447.4510102 897.41746837 467.40576172 859.97998047 C468.84293939 857.29358067 470.295047 854.61607097 471.75390625 851.94140625 C476.3051257 843.53646554 480.37194474 835.04262727 484.125 826.25 C497.87757557 794.09250044 497.87757557 794.09250044 508.53515625 788.72265625 C511.95402218 787.72029461 514.5644945 788.20719104 518 789 C521.52890447 796.05780894 517.98859525 805.07403316 515.73046875 812.1015625 C503.97264611 846.49862742 485.3499777 879.72493421 467.30078125 911.2109375 C464.33327909 916.39048044 461.44494601 921.61107896 458.56616211 926.84033203 C450.95871388 940.6474304 443.05732479 954.25793535 434.93896484 967.77050781 C433.0522355 970.91299783 431.17619525 974.06168577 429.30078125 977.2109375 C422.34074511 988.84072526 415.07840261 1000.11511398 407 1011 C406.4755127 1011.70850098 405.95102539 1012.41700195 405.41064453 1013.14697266 C390.57079636 1033.09540179 374.29642636 1053.15035891 354.81640625 1068.734375 C353.05131551 1070.15428156 351.3054783 1071.59884205 349.58984375 1073.078125 C314.90302499 1102.76256578 266.86954334 1125.82401959 220.3828125 1122.76171875 C197.17147271 1120.48654782 176.23303052 1110.54711263 160.96484375 1092.5625 C131.55006734 1054.20048544 128.48740666 1005.41711331 134 959 C142.25041721 896.83848786 161.77288681 836.34200701 189.44189453 780.18115234 C191.81828099 775.3293323 194.12401666 770.44452662 196.4375 765.5625 C199.46560046 759.19156648 202.55722741 752.85634172 205.7265625 746.5546875 C206.04494583 745.92120895 206.36332916 745.28773041 206.69136047 744.63505554 C208.25632882 741.52423376 209.82701057 738.41646917 211.40600586 735.31274414 C211.97456299 734.18731201 212.54312012 733.06187988 213.12890625 731.90234375 C213.63494385 730.90710693 214.14098145 729.91187012 214.66235352 728.88647461 C216.01232806 725.97339758 217.04479058 723.0628658 218 720 C212.50628723 726.38148004 207.08473937 732.78572077 202 739.5 C190.36291063 754.81402232 177.31200883 768.76086302 163.75 782.375 C162.91025635 783.2194165 162.0705127 784.06383301 161.20532227 784.93383789 C156.83836737 789.28957445 152.40260503 793.49588775 147.72460938 797.51611328 C145.56121711 799.37753715 143.47138302 801.31370441 141.375 803.25 C109.48506826 832 109.48506826 832 100 832 C100.02666748 833.13646973 100.05333496 834.27293945 100.08081055 835.44384766 C100.07597845 840.02705875 99.46537433 844.3864818 98.70703125 848.8984375 C98.56496246 849.77257294 98.42289368 850.64670837 98.27651978 851.54733276 C97.79543732 854.49107261 97.30422713 857.43302079 96.8125 860.375 C96.46155427 862.50356167 96.11072803 864.63214303 95.76000977 866.76074219 C92.73583222 885.00531792 89.51285823 903.21445644 86.29107666 921.42489624 C72.33288182 993.8519422 72.33288182 993.8519422 66.8125 1067.1875 C66.79413086 1068.99637695 66.79413086 1068.99637695 66.77539062 1070.84179688 C66.76438268 1077.56031386 67.23658723 1083.51091979 69 1090 C81.50285785 1087.93842098 93.43575729 1084.71515912 105.5480957 1081.03222656 C107.83530717 1080.34000979 110.12627456 1079.66157577 112.41796875 1078.984375 C113.10755173 1078.76988708 113.7971347 1078.55539917 114.50761414 1078.33441162 C118.31576585 1077.21551635 121.25446369 1076.46267779 125 1078 C126.5456543 1079.94604492 126.5456543 1079.94604492 127.82421875 1082.48046875 C128.53094727 1083.8562207 128.53094727 1083.8562207 129.25195312 1085.25976562 C129.72568359 1086.22591797 130.19941406 1087.19207031 130.6875 1088.1875 C131.41549805 1089.60772461 131.41549805 1089.60772461 132.15820312 1091.05664062 C138.14755278 1102.8949 138.14755278 1102.8949 137.82519531 1107.49389648 C137 1110 137 1110 135.04272461 1111.49121094 C134.17139893 1111.90145508 133.30007324 1112.31169922 132.40234375 1112.734375 C131.39453857 1113.21688721 130.3867334 1113.69939941 129.34838867 1114.1965332 C128.22279541 1114.70917725 127.09720215 1115.22182129 125.9375 1115.75 C124.74938721 1116.30582764 123.56127441 1116.86165527 122.3371582 1117.43432617 C102.61280369 1126.59585949 82.44742483 1134.82140652 62.37258911 1143.17575073 C44.58726371 1150.57978579 26.98750945 1158.12054465 9.71044922 1166.66259766 C5.28042328 1168.84848147 0.83081542 1170.99229085 -3.625 1173.125 C-4.37740967 1173.49165771 -5.12981934 1173.85831543 -5.9050293 1174.23608398 C-10.21114225 1176.29775687 -14.37095858 1177.82147764 -19 1179 C-37.8244596 1141.35108081 3.2988193 966.44067677 28.87988281 829.69482422 C30.90072936 819.82237241 32.76329759 810.00749806 34 800 C33.44054688 800.79019531 32.88109375 801.58039062 32.3046875 802.39453125 C31.49512039 803.53408777 30.68519053 804.67338663 29.875 805.8125 C29.43341553 806.43415039 28.99183105 807.05580078 28.53686523 807.69628906 C25.93652469 811.34060101 23.29861242 814.95097709 20.60546875 818.52734375 C14.8689853 826.1613775 9.3663028 833.77715897 4.5 842 C-0.82566425 850.98521537 -6.91357882 859.27858064 -13.20166016 867.60888672 C-16.16551786 871.54969887 -19.08045692 875.52631378 -22 879.5 C-23.16509788 881.08222767 -24.33046268 882.66425884 -25.49609375 884.24609375 C-26.07343262 885.02968262 -26.65077148 885.81327148 -27.24560547 886.62060547 C-29.007296 889.00989519 -30.77098098 891.39770073 -32.53515625 893.78515625 C-38.7740968 902.23257133 -44.97058997 910.70758409 -51.10571289 919.23071289 C-55.61431413 925.4862521 -60.18680605 931.69318346 -64.76953125 937.89453125 C-68.71415404 943.23857676 -72.61969056 948.60910781 -76.5 954 C-80.96020953 960.19654414 -85.46259635 966.35976023 -90 972.5 C-96.73553059 981.61748366 -103.37863637 990.79940769 -110 1000 C-116.68226075 1009.28521077 -123.38889007 1018.54949699 -130.1875 1027.75 C-135.00286929 1034.26722873 -139.75864473 1040.82113315 -144.453125 1047.42578125 C-149.03565544 1053.86928383 -153.68453785 1060.2653637 -158.31787109 1066.67236328 C-159.99090897 1068.98742034 -161.66181808 1071.30399814 -163.33203125 1073.62109375 C-163.87802979 1074.377854 -164.42402832 1075.13461426 -164.98657227 1075.91430664 C-166.07088721 1077.41871082 -167.1534349 1078.92439049 -168.23413086 1080.43139648 C-170.86805637 1084.0948484 -173.53652785 1087.71964808 -176.296875 1091.2890625 C-176.81556152 1091.96815674 -177.33424805 1092.64725098 -177.86865234 1093.34692383 C-178.84594423 1094.6221551 -179.83524528 1095.8883057 -180.83837891 1097.14331055 C-182.80047771 1099.71934224 -184.01387749 1101.33189775 -183.9453125 1104.6328125 C-180.79920868 1112.51107248 -175.46322561 1119.19760153 -170.3359375 1125.875 C-168.0361709 1128.95161083 -165.92641206 1132.10626907 -163.8125 1135.3125 C-149.27342921 1156.44870587 -128.54904633 1172.95602917 -104.22265625 1181.33984375 C-103.05605469 1181.74332031 -101.88945313 1182.14679688 -100.6875 1182.5625 C-99.63949219 1182.89378906 -98.59148438 1183.22507812 -97.51171875 1183.56640625 C-95 1185 -95 1185 -93.64453125 1188.15234375 C-93.43183594 1189.09207031 -93.21914063 1190.03179688 -93 1191 C-95.40847752 1193.40847752 -101.40545918 1192.44330972 -104.61328125 1192.5546875 C-106.42545891 1192.61775589 -106.42545891 1192.61775589 -108.27424622 1192.68209839 C-128.75092366 1193.32276004 -149.25214338 1193.14936002 -169.73608398 1193.13037109 C-175.94767059 1193.12466557 -182.15921402 1193.12797153 -188.37079906 1193.13394356 C-193.23997814 1193.1375981 -198.10914738 1193.13638857 -202.9783268 1193.13381577 C-205.26589272 1193.13316044 -207.55345961 1193.13392453 -209.8410244 1193.13629532 C-221.7893513 1193.14597222 -233.71699862 1193.01208894 -245.6574707 1192.55419922 C-246.69285823 1192.51547762 -247.72824575 1192.47675602 -248.79500866 1192.43686104 C-253.92975151 1192.219058 -258.92951483 1191.84540888 -264 1191 C-263.4765625 1188.18359375 -263.4765625 1188.18359375 -262 1185 C-259.36912545 1183.72670488 -257.1402148 1182.87082714 -254.375 1182.0625 C-246.18811554 1179.33687874 -240.4624832 1176.232393 -236 1168.5625 C-235.67 1167.716875 -235.34 1166.87125 -235 1166 C-235.57363281 1165.74734375 -236.14726563 1165.4946875 -236.73828125 1165.234375 C-240.06439178 1163.41908842 -242.54849349 1160.85225474 -245.29296875 1158.265625 C-248.98147682 1155.17856197 -252.96434775 1152.60830923 -257 1150 C-256.83806152 1149.35973877 -256.67612305 1148.71947754 -256.50927734 1148.05981445 C-255.78210917 1145.1477142 -255.07838115 1142.23043274 -254.375 1139.3125 C-254.11976563 1138.30509766 -253.86453125 1137.29769531 -253.6015625 1136.25976562 C-253.25351563 1134.79506836 -253.25351563 1134.79506836 -252.8984375 1133.30078125 C-252.67849121 1132.40528564 -252.45854492 1131.50979004 -252.23193359 1130.5871582 C-251.79463462 1125.70920322 -254.3719491 1122.19284274 -256.984375 1118.25390625 C-257.58258057 1117.34568115 -258.18078613 1116.43745605 -258.79711914 1115.50170898 C-259.76379517 1114.04680054 -259.76379517 1114.04680054 -260.75 1112.5625 C-262.11951192 1110.48244358 -263.48797702 1108.40169761 -264.85546875 1106.3203125 C-265.54946777 1105.26489258 -266.2434668 1104.20947266 -266.95849609 1103.12207031 C-270.03353906 1098.41940953 -273.0527642 1093.68213901 -276.0625 1088.9375 C-276.63371582 1088.03741211 -277.20493164 1087.13732422 -277.79345703 1086.20996094 C-278.94841896 1084.38921273 -280.10304196 1082.56824948 -281.25732422 1080.74707031 C-283.61662704 1077.02797878 -285.98333869 1073.31362609 -288.34985352 1069.59912109 C-294.76823893 1059.52355362 -301.15926991 1049.4310106 -307.53222656 1039.32666016 C-310.51729909 1034.59483362 -313.50582498 1029.86518699 -316.49389648 1025.13525391 C-319.03279721 1021.11598449 -321.57036477 1017.09588418 -324.10546875 1013.07421875 C-329.24557795 1004.92273245 -334.40144149 996.78354106 -339.640625 988.6953125 C-341.47982239 985.83735969 -343.26777586 982.95040834 -345.046875 980.0546875 C-345.57732422 979.19746094 -346.10777344 978.34023438 -346.65429688 977.45703125 C-347.69433285 975.77413338 -348.72725661 974.08681288 -349.75195312 972.39453125 C-352.40214377 968.12141094 -354.7515637 964.86846976 -359 962 C-362.01867628 963.32539265 -363.76581407 964.62940998 -365.82250977 967.18920898 C-371.74332446 974.17392695 -378.36466754 980.50811107 -384.83984375 986.97265625 C-386.29055619 988.42404351 -387.74112025 989.87557908 -389.19154358 991.32725525 C-392.22169583 994.35887609 -395.25363453 997.38869567 -398.28686523 1000.41723633 C-402.15790655 1004.2825809 -406.0244404 1008.15239825 -409.88963985 1012.02358341 C-412.88110552 1015.01867737 -415.87496711 1018.01136729 -418.86953926 1021.00335503 C-420.29549944 1022.42865221 -421.7207285 1023.85468128 -423.14518547 1025.28148079 C-436.79494003 1038.9487579 -436.79494003 1038.9487579 -444 1045 C-445.5448126 1046.4132355 -447.08695325 1047.82940409 -448.625 1049.25 C-451.48517827 1051.86262034 -454.37658877 1054.31670345 -457.50390625 1056.59765625 C-464.56290567 1061.77143786 -469.27980797 1066.09883039 -473.37890625 1074.03125 C-478.40816035 1083.24145028 -486.46358915 1090.82746076 -493.58496094 1098.47167969 C-494.95599749 1099.95247486 -496.3103388 1101.44867369 -497.6640625 1102.9453125 C-504.82941425 1110.85521606 -512.33249076 1118.39094268 -519.97045898 1125.84570312 C-524.80138899 1130.60796488 -529.13980526 1135.41481098 -533 1141 C-527.56631916 1146.72878592 -521.8592534 1151.64304431 -515.5 1156.3125 C-514.6234375 1156.96275146 -513.746875 1157.61300293 -512.84375 1158.28295898 C-505.7133786 1163.54329203 -498.44866369 1168.58375454 -491.11621094 1173.55615234 C-477.57365306 1182.79596398 -464.26569711 1192.36917969 -451 1202 C-439.3913308 1210.41710127 -427.73761685 1218.76357308 -416 1227 C-415.23494141 1227.53705566 -414.46988281 1228.07411133 -413.68164062 1228.62744141 C-403.90905517 1235.48465892 -394.11636713 1242.31259625 -384.3125 1249.125 C-376.94902579 1254.24206288 -369.60325566 1259.38252538 -362.28271484 1264.56079102 C-334.29968713 1284.35113282 -306.17670339 1303.99550645 -277 1322 C-276.24428711 1322.46792969 -275.48857422 1322.93585938 -274.70996094 1323.41796875 C-213.2221105 1361.34456852 -140.89849783 1395.8587292 -67.18359375 1396.203125 C-66.17726898 1396.21013931 -65.17094421 1396.21715363 -64.13412476 1396.22438049 C-60.90187057 1396.24180106 -57.66979941 1396.24823311 -54.4375 1396.25 C-52.78420181 1396.25101212 -52.78420181 1396.25101212 -51.09750366 1396.25204468 C-35.21157453 1396.23656315 -19.65149065 1395.99808102 -4 1393 C-3.05286133 1392.82307617 -2.10572266 1392.64615234 -1.12988281 1392.46386719 C28.95873987 1386.66642541 55.21508067 1373.78491933 77 1352 C81.09176955 1352.30309404 84.46165096 1352.87699058 88 1355 C83.56663427 1383.16194824 42.38442608 1418.43990044 21 1435 C20.26652344 1435.62390625 19.53304688 1436.2478125 18.77734375 1436.890625 C-17.41499189 1467.43372815 -64.6469296 1478.94287357 -111.21533203 1475.78173828 C-118.1912449 1475.15038876 -125.09454432 1474.16405244 -132 1473 C-132.90540527 1472.84966309 -133.81081055 1472.69932617 -134.74365234 1472.54443359 C-161.86499838 1467.83086993 -188.22874212 1457.78166541 -213 1446 C-213.86302734 1445.59458984 -214.72605469 1445.18917969 -215.61523438 1444.77148438 C-267.26358711 1420.3653409 -314.57605983 1384.72582942 -356.55859375 1346.2265625 C-358.66154833 1344.30866793 -360.78669156 1342.42623955 -362.9375 1340.5625 C-366.3468858 1337.6011649 -369.6779431 1334.55847514 -373 1331.5 C-376.95862186 1327.85585671 -380.9517676 1324.26086283 -385.015625 1320.734375 C-389.05374691 1317.20499286 -393.01914681 1313.59365774 -397 1310 C-398.66640851 1308.49971321 -400.33307353 1306.99971128 -402 1305.5 C-404.52500493 1303.2282871 -407.04913304 1300.95564586 -409.5703125 1298.6796875 C-413.31564256 1295.30087292 -417.06518207 1291.93104035 -420.875 1288.625 C-424.84097076 1285.17283922 -428.70517646 1281.61249119 -432.57324219 1278.05175781 C-436.0102442 1274.89302035 -439.49021321 1271.79361664 -443.015625 1268.734375 C-447.05374691 1265.20499286 -451.01914681 1261.59365774 -455 1258 C-456.66640851 1256.49971321 -458.33307353 1254.99971128 -460 1253.5 C-462.52500493 1251.2282871 -465.04913304 1248.95564586 -467.5703125 1246.6796875 C-471.31564256 1243.30087292 -475.06518207 1239.93104035 -478.875 1236.625 C-486.33357956 1230.11921304 -493.56146462 1223.35371624 -500.78515625 1216.58959961 C-506.4419467 1211.29338737 -512.10390162 1206.03061605 -518 1201 C-519.03277056 1200.11353572 -520.06529928 1199.22678965 -521.09765625 1198.33984375 C-523.48944211 1196.28583304 -525.88450462 1194.23572038 -528.28125 1192.1875 C-530.72846203 1190.0942872 -533.16529289 1187.98993639 -535.59375 1185.875 C-546.84709268 1174.51942677 -546.84709268 1174.51942677 -560 1168 C-560.804375 1168.969375 -561.60875 1169.93875 -562.4375 1170.9375 C-566.22950286 1175.48246037 -570.64242898 1179.03194345 -575.29541016 1182.66650391 C-576.48669746 1183.59844479 -577.67352958 1184.53609625 -578.85693359 1185.47802734 C-589.75352949 1194.14608142 -601.05462011 1201.8498332 -613 1209 C-614.01827881 1209.61053223 -614.01827881 1209.61053223 -615.05712891 1210.23339844 C-641.2363721 1225.77549206 -668.13265597 1235.30455527 -698 1241 C-698.91894043 1241.18079102 -699.83788086 1241.36158203 -700.78466797 1241.54785156 C-731.04719699 1247.22666227 -765.99234327 1246.59312479 -796 1240 C-796.86286621 1239.81808105 -797.72573242 1239.63616211 -798.61474609 1239.44873047 C-825.74767434 1233.57036712 -855.1412385 1220.97332948 -871 1197 C-882.95692249 1177.82412055 -886.78264497 1156.30832321 -884 1134 C-883.4642262 1131.83186863 -882.9230481 1129.66506132 -882.375 1127.5 C-881.69429254 1123.54361817 -881.69429254 1123.54361817 -883.20703125 1119.9765625 C-885.65070426 1117.69194513 -888.23396149 1115.88787884 -891 1114 C-894.09643515 1111.76790496 -897.1721251 1109.50759363 -900.25 1107.25 C-901.08547363 1106.64140137 -901.92094727 1106.03280273 -902.78173828 1105.40576172 C-910.04867895 1100.07177358 -916.57915267 1094.30950316 -923 1088 C-924.05018311 1086.98631348 -924.05018311 1086.98631348 -925.12158203 1085.95214844 C-934.89623527 1076.51325777 -943.9975374 1066.98730395 -952 1056 C-952.83291066 1054.88510078 -953.66624632 1053.77051893 -954.5 1052.65625 C-961.27893658 1043.48770193 -967.26964893 1033.85172969 -973 1024 C-973.59361328 1022.98196289 -973.59361328 1022.98196289 -974.19921875 1021.94335938 C-1014.76364255 951.40556441 -1019.46759301 858.2727441 -998.82080078 780.95019531 C-982.279461 721.4958378 -943.27597681 666.88778477 -891.1875 633.5625 C-889.98855103 632.78990845 -889.98855103 632.78990845 -888.76538086 632.00170898 C-884.29443182 629.19548981 -880.16445003 627.33227756 -875.125 625.6875 C-871.94285263 624.20928411 -870.4151873 623.04238514 -869.10498047 619.75292969 C-867.43352013 613.85855201 -866.47798903 607.84128972 -865.49902344 601.80078125 C-861.92316356 581.73118019 -849.9981939 560.85056081 -836.04296875 546.18359375 C-833.94406883 544.00752014 -833.94406883 544.00752014 -832.0546875 541.4921875 C-828.32812731 536.97213921 -823.59953286 533.59149876 -819 530 C-817.71222656 528.98873047 -817.71222656 528.98873047 -816.3984375 527.95703125 C-812.35241823 524.89501365 -808.34286859 522.12248224 -803.8203125 519.81640625 C-803.09610107 519.44064453 -802.37188965 519.06488281 -801.62573242 518.67773438 C-800.20004979 517.9511341 -798.76016214 517.25156538 -797.3059082 516.58398438 C-794.57623531 515.19328927 -792.51880421 514.10267247 -791.18432617 511.26635742 C-790.61149495 508.8494844 -790.29804332 506.46660227 -790 504 C-789.60839572 501.5759229 -789.21065429 499.15283351 -788.80859375 496.73046875 C-788.58838754 495.35239742 -788.36884518 493.97421988 -788.14990234 492.59594727 C-779.86755236 440.978874 -763.3131945 392.75893893 -740 346 C-739.54657227 345.08911621 -739.09314453 344.17823242 -738.62597656 343.23974609 C-728.81896567 323.68661517 -717.44038212 304.98701877 -705 287 C-704.54447754 286.33871094 -704.08895508 285.67742187 -703.61962891 284.99609375 C-685.77613971 259.16919698 -666.04502877 234.67950784 -644.60766602 211.7512207 C-643.46855679 210.51039603 -642.34554681 209.25470331 -641.23413086 207.98901367 C-634.22849089 200.03682492 -626.73589793 192.58463726 -619.23413086 185.10375977 C-616.9355279 182.81053252 -614.6423397 180.5119876 -612.34960938 178.21289062 C-610.86750813 176.73145 -609.3850968 175.2503195 -607.90234375 173.76953125 C-607.22815903 173.0933223 -606.5539743 172.41711334 -605.85935974 171.72041321 C-601.9605592 167.84048926 -597.95917618 164.13681774 -593.78842163 160.55030823 C-591.01868319 158.14933733 -588.36042011 155.63247171 -585.6875 153.125 C-580.81414451 148.58651476 -575.79696023 144.30651203 -570.6015625 140.13671875 C-568.05013271 138.04117506 -565.61673227 135.86036845 -563.1875 133.625 C-558.81299174 129.64316413 -554.25470925 125.98257917 -549.58349609 122.36108398 C-545.76676332 119.39947456 -542.00768748 116.38028042 -538.2800293 113.30737305 C-528.79060462 105.49469992 -518.97125548 98.18408914 -509 91 C-508.28730957 90.4858252 -507.57461914 89.97165039 -506.84033203 89.44189453 C-436.89627164 39.14044413 -358.82781964 -3.455449 0 0 Z M-411 72 C-411.84675293 72.49564453 -412.69350586 72.99128906 -413.56591797 73.50195312 C-438.49368151 88.14321645 -462.61065156 104.01473461 -486 121 C-486.72155273 121.52174805 -487.44310547 122.04349609 -488.18652344 122.58105469 C-499.41788191 130.71475474 -510.34798701 139.12142477 -521 148 C-521.57975586 148.48065918 -522.15951172 148.96131836 -522.75683594 149.45654297 C-529.69862753 155.21882671 -536.44467574 161.15253721 -543.05078125 167.296875 C-545.23518516 169.32153597 -547.47094088 171.27564794 -549.72705078 173.2199707 C-553.74384227 176.73025972 -557.55160042 180.40639304 -561.31640625 184.18359375 C-561.97656235 184.84279312 -562.63671844 185.50199249 -563.31687927 186.1811676 C-564.70035506 187.56396835 -566.08259083 188.94801076 -567.46362305 190.33325195 C-569.55731669 192.43230343 -571.65629874 194.5259594 -573.75585938 196.61914062 C-575.10969571 197.97363786 -576.46322175 199.32844531 -577.81640625 200.68359375 C-578.74169884 201.60584999 -578.74169884 201.60584999 -579.6856842 202.54673767 C-583.43615557 206.31710173 -586.9991045 210.20584211 -590.47181702 214.23370361 C-592.5547522 216.64119076 -594.71492655 218.97423867 -596.875 221.3125 C-600.89380593 225.72353173 -604.72865324 230.23735358 -608.47265625 234.8828125 C-610.35047916 237.21237942 -612.26024117 239.51257397 -614.18359375 241.8046875 C-622.90494286 252.22535358 -631.06797236 262.96890418 -639 274 C-639.51804199 274.71655762 -640.03608398 275.43311523 -640.56982422 276.17138672 C-660.31904429 303.53354096 -678.20156648 332.46522695 -692.94628906 362.83935547 C-694.07355524 365.15082574 -695.22060437 367.45196275 -696.3671875 369.75390625 C-711.75371333 400.96259687 -722.59535841 434.57362683 -731.625 468.125 C-731.83527832 468.9058194 -732.04555664 469.68663879 -732.26220703 470.49111938 C-734.44002515 478.62420531 -736.40701902 486.73119281 -738 495 C-737.11821327 494.99000725 -737.11821327 494.99000725 -736.21861267 494.97981262 C-729.97042448 494.91223557 -723.72234362 494.86770629 -717.47387695 494.83520508 C-715.15742767 494.82033247 -712.8410054 494.80002825 -710.5246582 494.77368164 C-690.50108105 494.55201842 -670.9265524 495.77488512 -651.4375 500.6875 C-650.40705566 500.94313721 -649.37661133 501.19877441 -648.31494141 501.4621582 C-591.09971169 516.1715142 -536.80980992 555.16957888 -498.73828125 600.04296875 C-496.58739361 602.46452989 -494.30388485 604.72374795 -492 607 C-488.50317918 610.46531793 -485.14331469 613.96978488 -481.94921875 617.71484375 C-480.44951992 619.47300771 -478.92680984 621.2115625 -477.39453125 622.94140625 C-462.14179514 640.23627409 -449.62375535 659.39570288 -436.91500854 678.57826233 C-436.34621979 679.43673264 -435.77743103 680.29520294 -435.19140625 681.1796875 C-434.61448029 682.05044418 -434.03755432 682.92120087 -433.44314575 683.81834412 C-429.04598642 690.44569564 -424.60848817 697.04500045 -420.15234375 703.6328125 C-419.50130173 704.59556091 -418.8502597 705.55830933 -418.17948914 706.55023193 C-415.62602554 710.32471485 -413.07167815 714.09858316 -410.51242065 717.86914062 C-408.74295796 720.47631322 -406.97682494 723.08571754 -405.2109375 725.6953125 C-404.65791458 726.50744202 -404.10489166 727.31957153 -403.53511047 728.15631104 C-400.72025938 732.31956449 -398.09531438 736.51606295 -395.63851929 740.89894104 C-392.43657539 746.7526373 -392.43657539 746.7526373 -386.921875 750.07421875 C-382.2314685 749.98545608 -379.7687031 748.68027373 -376.25 745.8125 C-375.65219727 745.35198242 -375.05439453 744.89146484 -374.43847656 744.41699219 C-372.59779624 742.97582427 -370.79657156 741.49565574 -369 740 C-368.45730469 739.55897949 -367.91460938 739.11795898 -367.35546875 738.66357422 C-360.17584281 732.76888754 -354.76333114 726.3228301 -349.55859375 718.66015625 C-346.9341805 714.82447535 -344.01743565 711.27064287 -341.0625 707.6875 C-329.62361256 693.61868977 -320.7440901 677.83326623 -312 662 C-311.53062012 661.15453613 -311.06124023 660.30907227 -310.57763672 659.43798828 C-302.65132686 645.06513148 -296.07938579 630.23896195 -290 615 C-289.62746094 614.07106934 -289.25492188 613.14213867 -288.87109375 612.18505859 C-273.89882518 574.37455562 -261.91473453 527.48141479 -273 487 C-273.32871094 485.75476563 -273.65742187 484.50953125 -273.99609375 483.2265625 C-279.61708446 464.3602615 -290.61809382 446.96903442 -308 437 C-337.80034604 421.12153279 -369.28326265 427.51178102 -400.59155273 434.66235352 C-414.17807384 437.72604272 -414.17807384 437.72604272 -421 437 C-422.9636435 435.38624615 -423.88818297 434.6143655 -424.34765625 432.08984375 C-423.69218818 427.1424067 -421.83943706 424.40538294 -417.9128418 421.30395508 C-388.48698138 400.13082642 -346.39791897 388.89338681 -310.42675781 393.31640625 C-305.80834784 394.13763409 -301.42972031 395.44705207 -297 397 C-295.94039062 397.36222656 -294.88078125 397.72445313 -293.7890625 398.09765625 C-273.39947091 405.82892812 -256.45343457 422.50229121 -247 442 C-242.49864642 452.6449474 -239.57213434 463.75825992 -237 475 C-234.37662859 472.56171308 -232.42429885 469.8680817 -230.375 466.9375 C-226.27421538 461.25028045 -221.815887 456.08878726 -217 451 C-216.2059375 450.14148438 -215.411875 449.28296875 -214.59375 448.3984375 C-208.94529348 442.48185804 -203.11672587 438.01923524 -196 434 C-195.2884375 433.58878906 -194.576875 433.17757813 -193.84375 432.75390625 C-183.85584644 427.34379182 -172.15368196 426.43012464 -161.1875 429.25 C-150.74944045 432.82876327 -142.85363765 440.14903148 -138 450 C-131.87684253 464.59717003 -128.89196682 479.78388378 -128.796875 495.56640625 C-128.78981537 496.35423996 -128.78275574 497.14207367 -128.77548218 497.95378113 C-128.27721688 570.01064224 -155.75075315 633.73502485 -187.13342285 697.24145508 C-188.42876218 699.87008705 -189.70965946 702.50572396 -190.9921875 705.140625 C-197.04598478 717.50342233 -203.69848367 729.46396891 -210.52685547 741.41308594 C-212.63346625 745.11239781 -214.71232671 748.82478701 -216.75 752.5625 C-217.36359375 753.67753906 -217.9771875 754.79257812 -218.609375 755.94140625 C-221.7369848 762.82039073 -220.66173935 768.18592226 -219.125 775.3125 C-218.90158936 776.38733643 -218.67817871 777.46217285 -218.44799805 778.56958008 C-217.64793964 782.38323575 -216.82725066 786.19217622 -216 790 C-215.84384216 790.72006226 -215.68768433 791.44012451 -215.52679443 792.18200684 C-213.32670471 802.31869217 -211.09482386 812.44831885 -208.85782337 822.57691097 C-197.35311577 874.68833024 -186.09546325 926.82302676 -177.68359375 979.5390625 C-176.4588827 987.20615796 -175.20829953 994.8684016 -173.91015625 1002.5234375 C-173.74938095 1003.49616608 -173.58860565 1004.46889465 -173.42295837 1005.47109985 C-172.66886133 1009.86805114 -171.93855435 1013.93801115 -170 1018 C-165.25279463 1013.57170478 -161.45959137 1008.55275931 -157.5625 1003.375 C-156.86020264 1002.4471167 -156.15790527 1001.5192334 -155.43432617 1000.56323242 C-144.63765883 986.26612582 -134.08831225 971.79145098 -123.62207031 957.25146484 C-121.41006445 954.18115809 -119.19217345 951.11512151 -116.97460938 948.04882812 C-108.46570744 936.28034683 -100.02782099 924.46507931 -91.66723633 912.59082031 C-88.55261075 908.17567419 -85.40849429 903.7835394 -82.23583984 899.40991211 C-80.62196329 897.18331037 -79.01570214 894.95136393 -77.41015625 892.71875 C-74.96628734 889.32284605 -72.4868401 885.95539086 -69.99609375 882.59375 C-68.68422982 880.79215145 -67.37301737 878.99007831 -66.0625 877.1875 C-65.42844238 876.34533936 -64.79438477 875.50317871 -64.14111328 874.63549805 C-63.56989746 873.84183838 -62.99868164 873.04817871 -62.41015625 872.23046875 C-61.63877319 871.18475708 -61.63877319 871.18475708 -60.85180664 870.11791992 C-59.7287075 867.94168661 -59.7287075 867.94168661 -60.72460938 865.34643555 C-62.26167732 862.51857183 -63.75483219 861.38483008 -66.4375 859.625 C-67.33339844 859.02558594 -68.22929688 858.42617188 -69.15234375 857.80859375 C-71.00508481 856.63188715 -72.87185327 855.47688804 -74.75390625 854.34765625 C-97.15706679 840.80378253 -110.69382353 815.55791409 -117.31201172 790.81103516 C-121.06754539 775.46638837 -123.57897081 759.73046269 -125 744 C-125.16628906 742.34484375 -125.16628906 742.34484375 -125.3359375 740.65625 C-133.27273078 647.13079402 -96.65014033 557.15061455 -62.46032715 472.22241211 C-51.49656496 444.98678385 -40.98387692 417.610571 -31 390 C-30.69705017 389.16247192 -30.39410034 388.32494385 -30.08197021 387.46203613 C-5.78701546 320.1209985 10.77674401 250.36825657 17 179 C17.14356934 177.45107056 17.14356934 177.45107056 17.29003906 175.87084961 C18.14445667 165.63085368 18.22056034 155.39737325 18.24023438 145.12670898 C18.24988316 142.09916086 18.28098266 139.07231017 18.3125 136.04492188 C18.50799106 99.98176406 11.52742035 64.66315009 -13 37 C-13.60199219 36.31421875 -14.20398438 35.6284375 -14.82421875 34.921875 C-46.09890943 1.54411401 -98.71591365 -8.48674539 -142.30810547 -10.12426758 C-227.41947639 -12.17185977 -307.94374747 18.02224567 -411 72 Z M312.8125 499.9375 C312.1105249 500.16348877 311.4085498 500.38947754 310.68530273 500.62231445 C271.35638956 513.79302869 233.92142192 542.94300891 205 572 C204.10023437 572.86496094 203.20046875 573.72992187 202.2734375 574.62109375 C149.1458805 625.93021527 126.83987524 703.17358689 111.8125 773.25 C111.60399414 774.20680664 111.39548828 775.16361328 111.18066406 776.14941406 C111.00374023 777.01276367 110.82681641 777.87611328 110.64453125 778.765625 C110.49346924 779.49555664 110.34240723 780.22548828 110.18676758 780.97753906 C109.97980436 783.21869371 110.33468736 784.86306269 111 787 C115.38640737 783.47180276 119.18920397 779.76847051 122.9375 775.5625 C125.77224258 772.39150417 128.56502267 769.37233842 131.8125 766.625 C141.94852196 758.02164265 150.546446 748.3945091 158.57568359 737.83886719 C160.55932281 735.27788491 162.62105384 732.78488001 164.68334961 730.28710938 C171.87786484 721.56700759 178.59629501 712.54312016 185.24267578 703.40136719 C186.95649543 701.05944858 188.69063913 698.7343553 190.43359375 696.4140625 C204.99965007 676.97884673 218.06070749 656.54005054 231 636 C231.9920813 634.42701635 232.98426524 632.85409743 233.9765625 631.28125 C234.45448242 630.52360352 234.93240234 629.76595703 235.42480469 628.98535156 C237.41895693 625.82559383 239.41535678 622.66726301 241.41308594 619.50976562 C242.48533469 617.81396299 243.55626497 616.11732609 244.62597656 614.41992188 C253.92855064 599.67520792 263.51704219 585.13020671 273.1875 570.625 C273.77442627 569.74415741 274.36135254 568.86331482 274.96606445 567.95578003 C281.24640386 558.53581952 287.56146468 549.14048625 293.94921875 539.79296875 C294.4604277 539.04435577 294.97163666 538.2957428 295.49833679 537.52444458 C304.54155334 524.32784151 313.98933291 511.47822631 324 499 C320.01231968 497.40291897 316.70218822 498.67020078 312.8125 499.9375 Z M-208.6875 505.625 C-214.4321084 513.32786193 -217.36443455 522.44122678 -220 531.5625 C-220.34248779 532.73997803 -220.68497559 533.91745605 -221.0378418 535.13061523 C-230.30914034 567.78873705 -233.22153541 601.16983914 -233.25 635 C-233.25167175 636.05005219 -233.25334351 637.10010437 -233.25506592 638.18197632 C-233.25634314 651.61385189 -232.96789835 664.94279837 -231.625 678.3125 C-231.49899414 679.57900391 -231.37298828 680.84550781 -231.24316406 682.15039062 C-230.6713124 688.43132724 -230.6713124 688.43132724 -228 694 C-207.03378637 653.57312531 -193.32687007 608.90347864 -186 564 C-185.87012695 563.22527344 -185.74025391 562.45054687 -185.60644531 561.65234375 C-182.41741744 541.96433972 -180.54350239 517.77604594 -191 500 C-192.070262 498.72430192 -192.070262 498.72430192 -194.5625 498.6875 C-200.42411692 499.22037427 -204.50285185 501.53766924 -208.6875 505.625 Z M-744 528 C-746.97038393 549.94623463 -747.65114298 571.00971578 -745 593 C-744.06542969 593.01458252 -743.13085938 593.02916504 -742.16796875 593.04418945 C-687.15351057 593.99911411 -634.39727568 604.19656764 -587.52539062 634.55078125 C-581.04021655 638.82267985 -581.04021655 638.82267985 -574 642 C-573.01 641.67 -572.02 641.34 -571 641 C-579.81717242 627.6944995 -589.71011754 615.30785961 -600.5859375 603.625 C-602.53648971 601.50401119 -604.43856421 599.35825639 -606.328125 597.18359375 C-611.80509507 590.90252966 -617.54192304 584.86509487 -623.27587891 578.81933594 C-624.68257397 577.33495593 -626.08251653 575.8441792 -627.48046875 574.3515625 C-647.93885396 553.08712458 -676.02829277 535.99008785 -705 530 C-706.33345459 529.7218042 -706.33345459 529.7218042 -707.69384766 529.43798828 C-715.58838294 527.94867575 -723.23319298 527.76184203 -731.25 527.875 C-733.10044922 527.88853516 -733.10044922 527.88853516 -734.98828125 527.90234375 C-737.99240024 527.92563149 -740.99608943 527.95833244 -744 528 Z M-800 551 C-802.21124015 553.5091312 -804.23577032 556.1437951 -806.25 558.8125 C-806.82137695 559.56805176 -807.39275391 560.32360352 -807.98144531 561.10205078 C-817.40610244 573.75037506 -829.95147066 591.05988107 -832 607 C-827.10560508 606.3575245 -822.35318088 605.47064294 -817.53515625 604.37109375 C-816.29386963 604.08935303 -815.05258301 603.8076123 -813.77368164 603.51733398 C-812.2189917 603.16098877 -810.66430176 602.80464355 -809.0625 602.4375 C-804.091875 601.303125 -799.12125 600.16875 -794 599 C-794 581.84 -794 564.68 -794 547 C-796.32249102 547 -798.42270117 549.61223846 -800 551 Z M-737 654 C-731.15634887 697.86096767 -707.44395708 740.45896338 -677 772 C-676.20335937 772.84820313 -675.40671875 773.69640625 -674.5859375 774.5703125 C-643.85080974 806.50681334 -598.97410935 824.60323201 -555 826 C-521.25819199 826.76674559 -521.25819199 826.76674559 -490 816 C-489.64956693 812.83274109 -489.64956693 812.83274109 -492.203125 810.7578125 C-493.21340028 809.87405514 -494.22948573 808.99691389 -495.25 808.125 C-499.69065627 804.1996889 -503.84260266 800.15051428 -507.8125 795.75 C-516.98514555 785.64137021 -526.39897285 775.75980954 -537.13671875 767.296875 C-540.6182965 764.50401318 -543.95881871 761.56901924 -547.3125 758.625 C-553.7428733 753.01190274 -560.34446436 747.6823549 -567.10302734 742.47167969 C-569.13806816 740.89288612 -571.15762088 739.29561994 -573.17578125 737.6953125 C-616.51879387 703.43887524 -663.7297855 675.8880187 -716.05493164 658.00708008 C-717.91752682 657.37015683 -719.77663558 656.72286183 -721.63061523 656.0612793 C-725.53440033 654.69018004 -728.86770821 653.61274801 -733.0625 653.8125 C-734.361875 653.874375 -735.66125 653.93625 -737 654 Z M-799.5625 647.0625 C-807.53234273 649.37393738 -815.55162389 651.39509477 -823.625 653.3125 C-824.74592041 653.57877197 -825.86684082 653.84504395 -827.02172852 654.11938477 C-829.68055879 654.74881961 -832.33992093 655.37586723 -835 656 C-833.72680617 719.99733408 -809.93987932 769.65224047 -766 816 C-765.2884375 816.75410156 -764.576875 817.50820313 -763.84375 818.28515625 C-759.47898942 822.78407955 -754.78197196 826.74831206 -749.890625 830.6640625 C-748.00110378 832.19099992 -746.13499862 833.74750119 -744.296875 835.3359375 C-731.03847546 846.7796399 -716.22076778 856.37660654 -701 865 C-700.17000488 865.47373047 -699.34000977 865.94746094 -698.48486328 866.43554688 C-686.48188747 873.24288449 -674.27729121 879.42946747 -661.6875 885.0625 C-660.49044434 885.59842773 -659.29338867 886.13435547 -658.06005859 886.68652344 C-646.91540746 892.33840422 -646.91540746 892.33840422 -635 895 C-637.84536604 900.42073384 -641.09136071 904.64780085 -645.3125 909.0625 C-645.92424072 909.710979 -646.53598145 910.35945801 -647.16625977 911.02758789 C-652.02312467 916.11670273 -657.12077121 920.90210668 -662.30834961 925.6496582 C-671.42384746 934.05841837 -679.72577123 943.28028857 -687.9375 952.5625 C-689.28711782 954.04581828 -690.64099482 955.52527755 -692 957 C-692.66128906 957.74765625 -693.32257813 958.4953125 -694.00390625 959.265625 C-698.5673055 963.94511856 -698.5673055 963.94511856 -701.9375 964.07421875 C-704.52070531 963.35503091 -706.63531929 962.27407366 -709 961 C-710.1653125 960.40316406 -711.330625 959.80632812 -712.53125 959.19140625 C-726.66795401 951.72198782 -739.77543022 942.27545107 -752 932 C-752.5372168 931.55156738 -753.07443359 931.10313477 -753.62792969 930.64111328 C-761.09074801 924.39877242 -768.23650282 918.00553088 -775 911 C-777.65183732 908.33057172 -780.32246959 905.68229116 -783.015625 903.0546875 C-789.8371792 896.37050819 -796.07920075 889.50708847 -802 882 C-802.90598409 880.9155645 -803.81499904 879.83365602 -804.7265625 878.75390625 C-849.12517948 825.65390342 -867.82718776 755.13715451 -871.60546875 687.26171875 C-871.86006143 682.78496626 -872.24922625 678.41977244 -873 674 C-886.32304693 680.37955422 -897.39935626 690.89910089 -908 701 C-908.77859375 701.72574219 -909.5571875 702.45148437 -910.359375 703.19921875 C-916.97844223 709.54835948 -922.53146407 716.66229231 -928 724 C-928.40782715 724.5470459 -928.8156543 725.0940918 -929.23583984 725.65771484 C-949.03414228 752.52158246 -957.34753734 784.17876682 -961 817 C-961.19722656 818.71509766 -961.19722656 818.71509766 -961.3984375 820.46484375 C-961.7197019 823.97704511 -961.89830434 827.47612703 -962 831 C-962.02723145 831.90331055 -962.05446289 832.80662109 -962.08251953 833.73730469 C-963.72989368 898.82412481 -946.20747347 964.0614303 -902 1013 C-901.45134277 1013.61037109 -900.90268555 1014.22074219 -900.33740234 1014.84960938 C-892.17022327 1023.93640292 -892.17022327 1023.93640292 -883.1796875 1032.1875 C-881.44521724 1033.62978351 -879.75036218 1035.11967549 -878.0703125 1036.625 C-869.42680175 1044.33976308 -860.28608342 1051.05644034 -850.55029297 1057.33154297 C-848.8190034 1058.46419019 -847.10473194 1059.62319827 -845.40673828 1060.80517578 C-833.98772344 1069.16654626 -833.98772344 1069.16654626 -820.49511719 1070.73950195 C-817.30611866 1069.93297783 -814.1951983 1068.93502135 -811.07080078 1067.90869141 C-805.14339597 1066.1546923 -799.06139392 1065.04284665 -793.00424194 1063.83047485 C-790.81422221 1063.38797625 -788.62822507 1062.92936979 -786.44262695 1062.46557617 C-772.09894698 1059.4454178 -758.07214864 1057.62553219 -743.375 1057.6875 C-742.68167572 1057.68932281 -741.98835144 1057.69114563 -741.27401733 1057.69302368 C-729.31462865 1057.74561012 -717.73367659 1058.60902218 -706 1061 C-705.1656543 1061.16628906 -704.33130859 1061.33257813 -703.47167969 1061.50390625 C-676.57282838 1067.01638432 -649.88368566 1076.89548682 -625.81958008 1090.20605469 C-618.66573947 1093.32752117 -607.90830752 1087.95893115 -601.0625 1085.625 C-600.40727356 1085.40380493 -599.75204712 1085.18260986 -599.07696533 1084.95471191 C-575.5110231 1076.97192968 -552.94951305 1066.68753073 -531 1055 C-530.10410156 1054.5671167 -529.20820312 1054.1342334 -528.28515625 1053.68823242 C-525.24288685 1051.4406584 -524.79451255 1049.63007171 -523.73828125 1046.01953125 C-523.55050613 1045.40052948 -523.36273102 1044.78152771 -523.16926575 1044.14376831 C-522.75538065 1042.77237224 -522.35002142 1041.39838226 -521.95196533 1040.02230835 C-520.81096369 1036.0793347 -519.6081524 1032.15490959 -518.41796875 1028.2265625 C-518.1559668 1027.35490952 -517.89396484 1026.48325653 -517.62402344 1025.58518982 C-515.4258731 1018.3031295 -513.10003074 1011.06641965 -510.73828125 1003.8359375 C-483.21559149 927.83582345 -483.21559149 927.83582345 -471.9375 848.5 C-471.95833333 847 -471.97916667 845.5 -472 844 C-480.52940145 845.90300951 -488.6536459 848.55605144 -496.83786011 851.58544922 C-547.10840663 870.09476844 -594.28736873 871.90775993 -643.6340332 849.65356445 C-662.36606675 840.94574746 -679.91491837 829.94598302 -696 817 C-696.56332031 816.55092285 -697.12664062 816.1018457 -697.70703125 815.63916016 C-710.44557898 805.41774349 -722.03009297 793.94703204 -732 781 C-732.89550534 779.87994602 -733.79135885 778.76017035 -734.6875 777.640625 C-763.14856082 741.50883218 -781.15385418 697.57333528 -788.70825195 652.38378906 C-789.0781015 650.24446732 -789.53083829 648.11975789 -790 646 C-793.22748802 644.38625599 -796.26239542 646.07175354 -799.5625 647.0625 Z M-294 695 C-299.70441714 701.71668323 -305.19573194 708.50554237 -310.4453125 715.5859375 C-313.61835031 719.84849683 -316.86987716 724.04998017 -320.125 728.25 C-320.69895508 728.99459473 -321.27291016 729.73918945 -321.86425781 730.50634766 C-330.23862529 741.28948426 -339.42387853 751.20101339 -349.8046875 760.08984375 C-352.58421942 762.50833327 -355.29146452 765.00279259 -358 767.5 C-362.60401681 771.74027485 -367.25843689 775.91388826 -372 780 C-366.24302717 793.15879504 -359.25098873 805.40819659 -351.92480469 817.74853516 C-334.29196671 847.53470159 -334.29196671 847.53470159 -328 861 C-317.91433195 848.56178583 -308.95418198 835.26075489 -300 822 C-299.44006348 821.17371094 -298.88012695 820.34742188 -298.30322266 819.49609375 C-296.65589961 817.06294858 -295.0143582 814.626017 -293.375 812.1875 C-292.87814697 811.45297607 -292.38129395 810.71845215 -291.86938477 809.96166992 C-291.40459717 809.26662354 -290.93980957 808.57157715 -290.4609375 807.85546875 C-290.05665527 807.25371826 -289.65237305 806.65196777 -289.23583984 806.03198242 C-282.32338558 794.66644374 -284.94590908 782.63558806 -286.875 770 C-290.36804489 745.45817647 -291.29002978 720.75660394 -292 696 C-292.99 695.505 -292.99 695.505 -294 695 Z M-441 834 C-446.37183614 872.80320659 -451.65893577 911.61774401 -456.81286621 950.45053101 C-457.35327156 954.52150243 -457.89611116 958.59213777 -458.44104004 962.6625061 C-459.08798612 967.49636336 -459.72971961 972.33088489 -460.36748123 977.16596222 C-460.60391245 978.9522561 -460.84208513 980.73832048 -461.08213425 982.52413177 C-461.41202651 984.98104548 -461.73537 987.4387383 -462.05712891 989.89672852 C-462.20190863 990.95816432 -462.20190863 990.95816432 -462.34961319 992.04104328 C-462.95557636 996.74204217 -463.07974539 1001.27241161 -463 1006 C-458.89096086 1003.70622954 -455.36472926 1000.9350881 -451.8125 997.875 C-450.9603894 997.14748535 -450.9603894 997.14748535 -450.09106445 996.40527344 C-445.83746142 992.75881627 -441.65137399 989.04110949 -437.51171875 985.265625 C-436.10899867 984.00034095 -434.7001909 982.74144698 -433.2696228 981.50773621 C-428.48063987 977.37739443 -423.92856822 973.07557179 -419.46484375 968.59765625 C-418.44131554 967.57556313 -418.44131554 967.57556313 -417.39710999 966.53282166 C-415.96655563 965.10294259 -414.53724233 963.67182089 -413.10913086 962.23950195 C-410.94300926 960.06802289 -408.77159826 957.90193675 -406.59960938 955.73632812 C-405.20020013 954.33625798 -403.80110116 952.93587762 -402.40234375 951.53515625 C-401.44424049 950.58008934 -401.44424049 950.58008934 -400.46678162 949.60572815 C-396.66288927 945.78231731 -393.04196757 941.84590045 -389.51972961 937.76127625 C-386.74861658 934.54972104 -383.87177859 931.43265202 -381.015625 928.296875 C-380.35046875 927.53890625 -379.6853125 926.7809375 -379 926 C-378.39671875 925.34515625 -377.7934375 924.6903125 -377.171875 924.015625 C-375.75752252 922.04730424 -375.75752252 922.04730424 -376.27587891 919.66625977 C-377.02288703 916.91572849 -378.01263105 914.80126792 -379.4140625 912.32421875 C-379.91993896 911.42630615 -380.42581543 910.52839355 -380.94702148 909.60327148 C-381.50075439 908.64106689 -382.0544873 907.6788623 -382.625 906.6875 C-383.20258057 905.6756665 -383.78016113 904.66383301 -384.37524414 903.62133789 C-390.35134639 893.24094987 -396.68376736 883.09369687 -403.109375 872.98730469 C-405.01697821 869.97317337 -406.9013334 866.94552552 -408.78125 863.9140625 C-409.99973131 861.9633738 -411.21847119 860.0128466 -412.4375 858.0625 C-412.98011475 857.18134521 -413.52272949 856.30019043 -414.08178711 855.39233398 C-418.74173211 847.98940658 -424.02168975 839.64023961 -432.25 835.9375 C-433.05953125 835.55464844 -433.8690625 835.17179688 -434.703125 834.77734375 C-437.22734064 833.78628404 -437.22734064 833.78628404 -441 834 Z M-281 854 C-282.73156393 856.12510119 -284.32187777 858.1938552 -285.875 860.4375 C-286.51671143 861.34786011 -286.51671143 861.34786011 -287.17138672 862.27661133 C-290.82495477 867.55043967 -293.95081944 873.04804216 -297.03515625 878.66796875 C-299.54117244 882.91773378 -302.48924727 886.70154679 -305.62890625 890.5 C-307.46221155 893.84277889 -306.89791849 895.33338343 -306 899 C-304.61291241 901.95343553 -304.61291241 901.95343553 -302.78125 904.91015625 C-302.28709595 905.744011 -302.28709595 905.744011 -301.78295898 906.5947113 C-300.69720549 908.42256773 -299.5985883 910.24233409 -298.5 912.0625 C-297.72882019 913.35617672 -296.95865545 914.65045902 -296.18945312 915.9453125 C-294.59116116 918.63403607 -292.98853922 921.32010496 -291.3828125 924.00439453 C-288.06774186 929.55361476 -284.80615596 935.13397009 -281.54418945 940.71450806 C-279.79255599 943.70968047 -278.0365956 946.70231468 -276.28125 949.6953125 C-273.34139623 954.70956136 -270.4044585 959.72551079 -267.46875 964.7421875 C-263.31934518 971.83215378 -259.16367146 978.91840071 -255 986 C-254.20916016 987.34553955 -254.20916016 987.34553955 -253.40234375 988.71826172 C-252.10612776 990.91909167 -250.80474666 993.11672011 -249.5 995.3125 C-248.8296875 996.44300781 -248.159375 997.57351563 -247.46875 998.73828125 C-246.9840625 999.48464844 -246.499375 1000.23101563 -246 1001 C-245.67 1001 -245.34 1001 -245 1001 C-245.45255213 988.84366413 -247.82042358 977.05091166 -250.0625 965.125 C-250.46933351 962.93759909 -250.87607051 960.75018023 -251.28271484 958.56274414 C-256.146051 932.52572641 -261.49856965 906.60421769 -267.25765991 880.75167847 C-269.59817465 870.21993752 -271.55346421 859.69058828 -273 849 C-276.44121654 849 -278.63410262 851.72170118 -281 854 Z M-768 1090 C-768 1090.66 -768 1091.32 -768 1092 C-745.11153474 1096.28636868 -745.11153474 1096.28636868 -722 1099 C-720.74445313 1099.11085938 -719.48890625 1099.22171875 -718.1953125 1099.3359375 C-710.02435655 1099.95418979 -701.87920387 1100.09858732 -693.6875 1100.125 C-692.2022583 1100.13200928 -692.2022583 1100.13200928 -690.68701172 1100.13916016 C-684.07536735 1100.12481341 -677.57314841 1099.70613291 -671 1099 C-674.8012046 1096.4658636 -678.58503135 1095.42257662 -682.9375 1094.125 C-683.81760742 1093.86178955 -684.69771484 1093.5985791 -685.60449219 1093.32739258 C-712.68470064 1085.45182965 -740.46765833 1082.85684838 -768 1090 Z M-616.6875 1149.9375 C-680.65512322 1172.15825028 -751.60950818 1174.75677133 -815.93066406 1152.50292969 C-816.92678711 1152.16422852 -817.92291016 1151.82552734 -818.94921875 1151.4765625 C-819.82924561 1151.16799316 -820.70927246 1150.85942383 -821.6159668 1150.54150391 C-824.21896265 1149.95026532 -825.54745189 1149.97874338 -828 1151 C-831.07887733 1155.24672735 -831.42314466 1158.69208281 -830.6328125 1163.703125 C-827.95442757 1173.4246703 -819.86247749 1180.21496369 -811.5 1185.125 C-772.58092002 1206.89110513 -719.83074983 1201.59092625 -678.61181641 1190.34863281 C-660.40340512 1185.20118842 -644.36128754 1175.86970756 -629 1165 C-628.39285156 1164.57154785 -627.78570313 1164.1430957 -627.16015625 1163.70166016 C-624.18163456 1161.59449775 -621.21331454 1159.47375759 -618.25390625 1157.33984375 C-613.86929415 1154.17902561 -609.43661669 1151.08723097 -605 1148 C-609.35834539 1146.5472182 -612.54220526 1148.42588468 -616.6875 1149.9375 Z " fill="#323232" transform="translate(1010,44)"/>
<path d="M0 0 C1.57394531 1.15048828 1.57394531 1.15048828 3.1796875 2.32421875 C10.91211966 8.07306933 18.02171847 14.36557582 25 21 C25.68320313 21.61875 26.36640625 22.2375 27.0703125 22.875 C67.82733264 61.07404816 81.37524933 122.92560272 83.11376953 176.50634766 C84.57550542 243.24056666 70.71469427 310.49695463 51 374 C50.77717346 374.7209082 50.55434692 375.44181641 50.32476807 376.18457031 C37.03224986 419.13016612 20.87804489 461.03738819 4.54660034 502.90011597 C-31.18774664 592.02432599 -31.18774664 592.02432599 -54 685 C-54.19698486 686.19689453 -54.19698486 686.19689453 -54.39794922 687.41796875 C-60.10605991 724.11639711 -61.29382612 779.9859127 -39.0625 811.5 C-35.72106226 815.59965316 -31.76784436 819.61607782 -27 822 C-28.31997698 824.78828763 -29.79529493 827.24324231 -31.6171875 829.73046875 C-32.13603516 830.44299805 -32.65488281 831.15552734 -33.18945312 831.88964844 C-33.74568359 832.64793945 -34.30191406 833.40623047 -34.875 834.1875 C-39.97648606 841.18701371 -45.01024923 848.22769146 -49.95263672 855.34057617 C-52.79399022 859.40015127 -55.77472909 863.23718394 -59 867 C-59.86625 866.195625 -60.7325 865.39125 -61.625 864.5625 C-65.12029305 861.54222649 -68.89724072 859.11621136 -72.8125 856.6875 C-92.57315733 844.30537534 -105.8720859 825.59228334 -114 804 C-114.44988281 802.80632813 -114.89976562 801.61265625 -115.36328125 800.3828125 C-121.51239795 782.3733252 -124.29166391 762.91088326 -126 744 C-126.16628906 742.34484375 -126.16628906 742.34484375 -126.3359375 740.65625 C-134.27273078 647.13079402 -97.65014033 557.15061455 -63.46032715 472.22241211 C-52.49656496 444.98678385 -41.98387692 417.610571 -32 390 C-31.69705017 389.16247192 -31.39410034 388.32494385 -31.08197021 387.46203613 C-6.78701546 320.1209985 9.77674401 250.36825657 16 179 C16.14356934 177.45107056 16.14356934 177.45107056 16.29003906 175.87084961 C17.14445667 165.63085368 17.22056034 155.39737325 17.24023438 145.12670898 C17.24988316 142.09916086 17.28098266 139.07231017 17.3125 136.04492188 C17.50825883 99.93236762 10.49817081 64.72626913 -14 37 C-14.52851562 36.38769531 -15.05703125 35.77539062 -15.6015625 35.14453125 C-45.52516095 2.84239036 -97.22986426 -6.83585019 -139 -9 C-224.43265486 -12.20924143 -305.77260724 18.1342154 -411 73 C-411.84675293 73.49564453 -412.69350586 73.99128906 -413.56591797 74.50195312 C-438.49368151 89.14321645 -462.61065156 105.01473461 -486 122 C-486.72155273 122.52174805 -487.44310547 123.04349609 -488.18652344 123.58105469 C-499.41788191 131.71475474 -510.34798701 140.12142477 -521 149 C-521.57975586 149.48065918 -522.15951172 149.96131836 -522.75683594 150.45654297 C-529.69862753 156.21882671 -536.44467574 162.15253721 -543.05078125 168.296875 C-544.54494204 169.68407353 -546.04902254 171.04153454 -547.60473633 172.35961914 C-554.44527672 178.16267911 -560.70808336 184.55773708 -567.03637695 190.90600586 C-569.05764268 192.9326298 -571.08419574 194.95385547 -573.11132812 196.97460938 C-579.2879319 203.14802767 -585.359941 209.32605032 -591 216 C-592.61967817 217.77570221 -594.24411718 219.54708307 -595.875 221.3125 C-599.89380593 225.72353173 -603.72865324 230.23735358 -607.47265625 234.8828125 C-609.35047916 237.21237942 -611.26024117 239.51257397 -613.18359375 241.8046875 C-621.90494286 252.22535358 -630.06797236 262.96890418 -638 274 C-638.77706299 275.07483643 -638.77706299 275.07483643 -639.56982422 276.17138672 C-659.31904429 303.53354096 -677.20156648 332.46522695 -691.94628906 362.83935547 C-693.07355524 365.15082574 -694.22060437 367.45196275 -695.3671875 369.75390625 C-714.53277473 408.62771629 -727.81476062 451.68758675 -737 494 C-736.42467026 493.99333817 -735.84934052 493.98667633 -735.25657654 493.97981262 C-729.13815037 493.91220342 -723.019834 493.86769381 -716.90112305 493.83520508 C-714.63317541 493.82033801 -712.36525532 493.80003842 -710.09741211 493.77368164 C-690.22419657 493.54890142 -670.77865723 494.81216512 -651.4375 499.6875 C-650.40705566 499.94313721 -649.37661133 500.19877441 -648.31494141 500.4621582 C-590.64508764 515.28839264 -535.98842415 554.83186237 -497.703125 600.078125 C-495.56600337 602.48973932 -493.29205721 604.73539257 -491 607 C-487.50317918 610.46531793 -484.14331469 613.96978488 -480.94921875 617.71484375 C-479.44951992 619.47300771 -477.92680984 621.2115625 -476.39453125 622.94140625 C-461.1428514 640.23507642 -448.62437716 659.39270745 -435.91816711 678.57510376 C-430.35858042 686.96739168 -424.76332316 695.33361506 -419.1171875 703.66796875 C-418.13707451 705.11564133 -418.13707451 705.11564133 -417.13716125 706.59255981 C-414.57322398 710.37846911 -412.00875118 714.16398573 -409.4369812 717.94458008 C-407.65907483 720.55846627 -405.88474697 723.17471385 -404.11328125 725.79296875 C-403.56379822 726.60468536 -403.01431519 727.41640198 -402.44818115 728.25271606 C-398.82676179 733.64791603 -395.5031685 739.11285691 -392.44775391 744.85180664 C-390.16798473 748.23455351 -387.88756373 749.04794358 -384 750 C-387.24790448 753.74250922 -390.92310734 755.64443358 -395.375 757.625 C-396.34566406 758.07359375 -396.34566406 758.07359375 -397.3359375 758.53125 C-406.93131877 762.90333904 -416.04993793 765.22778513 -426.4609375 761.890625 C-439.55647167 755.83731172 -450.31919582 745.62746221 -460.85546875 735.96484375 C-462.81378128 734.17061569 -464.80226137 732.42304764 -466.8125 730.6875 C-470.97880355 727.05987004 -475.02272097 723.30428752 -479.07470703 719.55029297 C-483.2205036 715.71168133 -487.39956762 711.91298786 -491.609375 708.14453125 C-493.23021704 706.6905406 -494.8446228 705.22934894 -496.453125 703.76171875 C-502.466893 698.28692052 -508.66051592 693.0927732 -515 688 C-515.85319824 687.31333252 -515.85319824 687.31333252 -516.72363281 686.61279297 C-525.18912768 679.80260062 -533.70857654 673.06292086 -542.26171875 666.36328125 C-544.02015122 664.98419601 -545.77606979 663.60197149 -547.53125 662.21875 C-548.11527588 661.75903809 -548.69930176 661.29932617 -549.30102539 660.82568359 C-550.46822307 659.90583799 -551.63409497 658.98430742 -552.79858398 658.06103516 C-555.70114472 655.76800807 -558.62693504 653.52886507 -561.62890625 651.3671875 C-571.6853675 644.06800896 -571.6853675 644.06800896 -573.9375 638.25 C-576.58295056 632.64786941 -581.13462378 627.8182837 -585 623 C-585.75925781 622.04480469 -586.51851562 621.08960938 -587.30078125 620.10546875 C-591.82517628 614.48814704 -596.55125797 609.09855409 -601.4453125 603.80078125 C-603.44141767 601.61239072 -605.3975264 599.40341977 -607.33984375 597.16796875 C-612.82806109 590.87592909 -618.58010037 584.83055779 -624.32324219 578.77197266 C-625.64139684 577.37896647 -626.95118954 575.97804722 -628.2578125 574.57421875 C-655.25028997 546.35481048 -692.40250838 529.38731249 -731.25 528.375 C-732.48363281 528.33632813 -733.71726562 528.29765625 -734.98828125 528.2578125 C-737.99204937 528.1646724 -740.99582878 528.07885469 -744 528 C-744.06058594 528.98097656 -744.12117188 529.96195313 -744.18359375 530.97265625 C-744.24365601 531.93957397 -744.24365601 531.93957397 -744.30493164 532.92602539 C-744.39448007 534.36918993 -744.48349666 535.81238755 -744.57202148 537.25561523 C-744.79123858 540.79737755 -745.02507862 544.33618903 -745.2890625 547.875 C-746.45154965 563.55196962 -745.80312283 578.74666461 -744.45581055 594.37597656 C-744.19040798 597.46614152 -743.93725075 600.5571301 -743.68554688 603.6484375 C-742.07177021 623.05129845 -740.20355897 642.31772171 -735.25 661.1875 C-735.07570465 661.86345215 -734.9014093 662.5394043 -734.72183228 663.23583984 C-724.18226518 704.07405146 -705.41377387 741.49850568 -676 772 C-675.27683594 772.77472656 -674.55367187 773.54945313 -673.80859375 774.34765625 C-643.52258753 805.97227048 -598.3102248 823.62431926 -555 825 C-522.35251848 825.82344327 -522.35251848 825.82344327 -491.8828125 815.98828125 C-490 815 -490 815 -487 815 C-484.97875977 816.64892578 -484.97875977 816.64892578 -482.69140625 818.9453125 C-481.86189453 819.77546875 -481.03238281 820.605625 -480.17773438 821.4609375 C-479.31470703 822.34007812 -478.45167969 823.21921875 -477.5625 824.125 C-476.70333984 824.9809375 -475.84417969 825.836875 -474.95898438 826.71875 C-470.8042715 830.90891815 -466.99911682 834.90400763 -464 840 C-457.29417279 838.76804565 -451.91297198 836.81046119 -445.9375 833.5625 C-444.70422974 832.90096924 -444.70422974 832.90096924 -443.44604492 832.22607422 C-435.21509079 827.71972405 -427.56247714 822.53988818 -420 817 C-419.34435059 816.52304687 -418.68870117 816.04609375 -418.01318359 815.5546875 C-406.58294993 807.21136983 -395.6138422 798.31992344 -384.7265625 789.28515625 C-383.76492188 788.48980469 -382.80328125 787.69445312 -381.8125 786.875 C-380.58466797 785.85019531 -380.58466797 785.85019531 -379.33203125 784.8046875 C-376.98338259 782.98714029 -374.57588247 781.47324006 -372 780 C-371.57255493 780.79543213 -371.57255493 780.79543213 -371.13647461 781.60693359 C-363.29047259 796.17519768 -355.12890922 810.5406107 -346.82519531 824.85205078 C-343.99776045 829.7285817 -341.18179228 834.61156244 -338.375 839.5 C-337.90255859 840.31734619 -337.43011719 841.13469238 -336.94335938 841.97680664 C-335.60726683 844.30655793 -334.29756368 846.64859235 -333 849 C-332.51176758 849.87011719 -332.02353516 850.74023438 -331.52050781 851.63671875 C-330.81812988 852.94576172 -330.81812988 852.94576172 -330.1015625 854.28125 C-329.67439941 855.06564453 -329.24723633 855.85003906 -328.80712891 856.65820312 C-327.80340604 859.57039602 -328.06586775 861.08758454 -329 864 C-330.04052734 865.81420898 -330.04052734 865.81420898 -331.3359375 867.49609375 C-331.81764404 868.1300708 -332.29935059 868.76404785 -332.7956543 869.41723633 C-333.57743042 870.41726685 -333.57743042 870.41726685 -334.375 871.4375 C-335.18094604 872.48877075 -335.18094604 872.48877075 -336.00317383 873.5612793 C-337.6591904 875.71514511 -339.3280381 877.85849754 -341 880 C-341.97528343 881.25779466 -342.95054499 882.51560627 -343.92578125 883.7734375 C-351.83734737 893.93673573 -359.99371467 903.89142779 -368.37109375 913.67407227 C-370.39982649 916.05333641 -372.26273731 918.39410597 -374 921 C-374.66 921 -375.32 921 -376 921 C-376.41958984 920.20456787 -376.41958984 920.20456787 -376.84765625 919.39306641 C-387.85279066 898.63458739 -400.11929585 878.64371916 -413 859 C-413.69480469 857.92621094 -414.38960937 856.85242188 -415.10546875 855.74609375 C-422.18882794 844.91506609 -427.82238544 837.1371964 -441 834 C-441.0486898 834.75253492 -441.09737961 835.50506985 -441.14754486 836.28040886 C-441.77661633 845.24321107 -442.83911095 854.12183482 -444.02539062 863.02392578 C-444.23110167 864.58741988 -444.4365118 866.1509536 -444.64164734 867.71452332 C-445.19416914 871.91880041 -445.75106592 876.1224868 -446.30897331 880.32605219 C-446.89392193 884.73790229 -447.47531266 889.1502215 -448.05725098 893.56246948 C-449.03323467 900.95799304 -450.01209432 908.35313163 -450.99267578 915.74804688 C-452.12643371 924.29840682 -453.25551567 932.84937457 -454.38215685 941.40067494 C-455.46812012 949.64235518 -456.55742352 957.88359066 -457.64823914 966.12462997 C-458.11184314 969.62760993 -458.57425932 973.13074368 -459.03572083 976.6340065 C-459.57803124 980.74991932 -460.12325468 984.86543588 -460.67075539 988.98066139 C-460.87132773 990.49185411 -461.07088655 992.00318173 -461.26936913 993.51465034 C-461.53991835 995.57362838 -461.81410074 997.63209039 -462.0892334 999.69046021 C-462.24187401 1000.84333086 -462.39451462 1001.99620152 -462.5517807 1003.18400764 C-463.27853775 1007.74994737 -464.18218522 1009.41775097 -467.83984375 1012.1171875 C-469.04918579 1013.01739624 -469.04918579 1013.01739624 -470.28295898 1013.93579102 C-471.15895752 1014.57572998 -472.03495605 1015.21566895 -472.9375 1015.875 C-473.84121338 1016.54265381 -474.74492676 1017.21030762 -475.67602539 1017.89819336 C-478.44522084 1019.93968521 -481.22218887 1021.97025381 -484 1024 C-485.53140984 1025.12868942 -487.06267051 1026.25758126 -488.59375 1027.38671875 C-496.7466582 1033.36661098 -505.03775997 1039.12212384 -513.4375 1044.75 C-514.79766235 1045.6637439 -514.79766235 1045.6637439 -516.18530273 1046.59594727 C-517.03036377 1047.15725342 -517.8754248 1047.71855957 -518.74609375 1048.296875 C-519.49560303 1048.79541992 -520.2451123 1049.29396484 -521.01733398 1049.80761719 C-523 1051 -523 1051 -526 1052 C-524.65767432 1044.07367003 -522.40554209 1036.59676641 -519.88671875 1028.97265625 C-519.26455341 1027.0639824 -518.64239685 1025.15530565 -518.0206213 1023.24650478 C-517.36366014 1021.232486 -516.70418493 1019.21930512 -516.04412842 1017.20629883 C-513.74710418 1010.19676719 -511.47723169 1003.17841175 -509.20703125 996.16015625 C-508.98081085 995.46114826 -508.75459045 994.76214027 -508.52151489 994.04195023 C-492.65886447 945.00626669 -477.16571186 895.47966011 -472 844 C-473.18215088 844.42297363 -474.36430176 844.84594727 -475.58227539 845.28173828 C-535.15103549 866.54731713 -586.67210079 877.13302179 -646.25 849.4375 C-664.00698872 840.92360346 -680.66371782 830.33579828 -696 818 C-696.55800293 817.55624023 -697.11600586 817.11248047 -697.69091797 816.65527344 C-710.78309916 806.17997774 -722.79016221 794.30700199 -733 781 C-733.8939918 779.88107919 -734.78855796 778.76261714 -735.68359375 777.64453125 C-760.99395123 745.52066825 -778.2465197 706.83903854 -787 667 C-787.15478821 666.32988892 -787.30957642 665.65977783 -787.46905518 664.96936035 C-791.12377433 648.92513008 -792.21956707 632.77425777 -793.12971497 616.39027023 C-793.25119391 614.22875633 -793.37812987 612.06762684 -793.50671387 609.90652466 C-794.73098001 589.27245707 -795.65686268 568.67348957 -795 548 C-806.96766465 559.9067088 -815.5639626 572.89659574 -823.375 587.8125 C-823.87475342 588.76648682 -824.37450684 589.72047363 -824.8894043 590.70336914 C-827.22725025 595.25477051 -829.23274655 599.63878252 -830.8359375 604.5 C-831.85542131 607.11498374 -832.43713171 608.60121596 -834.73779297 610.23120117 C-836.89405321 611.09438024 -838.98668978 611.66810669 -841.25 612.1875 C-842.86135842 612.63484316 -844.47071424 613.08945436 -846.078125 613.55078125 C-846.89345703 613.77846191 -847.70878906 614.00614258 -848.54882812 614.24072266 C-853.22154326 615.68814736 -857.61121435 617.77601051 -862.04785156 619.81713867 C-866.8300046 622 -866.8300046 622 -869 622 C-867.24839258 594.4121831 -855.34904771 569.13631976 -838 548 C-836.99646484 546.76443359 -836.99646484 546.76443359 -835.97265625 545.50390625 C-830.92783266 539.55122074 -825.16997343 534.75070957 -819 530 C-818.14664063 529.33097656 -817.29328125 528.66195312 -816.4140625 527.97265625 C-812.36464723 524.90215368 -808.34973545 522.12598369 -803.8203125 519.81640625 C-803.09610107 519.44064453 -802.37188965 519.06488281 -801.62573242 518.67773438 C-800.20004979 517.9511341 -798.76016214 517.25156538 -797.3059082 516.58398438 C-794.57623531 515.19328927 -792.51880421 514.10267247 -791.18432617 511.26635742 C-790.61149495 508.8494844 -790.29804332 506.46660227 -790 504 C-789.60839572 501.5759229 -789.21065429 499.15283351 -788.80859375 496.73046875 C-788.58838754 495.35239742 -788.36884518 493.97421988 -788.14990234 492.59594727 C-779.86755236 440.978874 -763.3131945 392.75893893 -740 346 C-739.54657227 345.08911621 -739.09314453 344.17823242 -738.62597656 343.23974609 C-728.81896567 323.68661517 -717.44038212 304.98701877 -705 287 C-704.54447754 286.33871094 -704.08895508 285.67742187 -703.61962891 284.99609375 C-685.77613971 259.16919698 -666.04502877 234.67950784 -644.60766602 211.7512207 C-643.46855679 210.51039603 -642.34554681 209.25470331 -641.23413086 207.98901367 C-634.22849089 200.03682492 -626.73589793 192.58463726 -619.23413086 185.10375977 C-616.9355279 182.81053252 -614.6423397 180.5119876 -612.34960938 178.21289062 C-610.86750813 176.73145 -609.3850968 175.2503195 -607.90234375 173.76953125 C-607.22815903 173.0933223 -606.5539743 172.41711334 -605.85935974 171.72041321 C-601.9605592 167.84048926 -597.95917618 164.13681774 -593.78842163 160.55030823 C-591.01868319 158.14933733 -588.36042011 155.63247171 -585.6875 153.125 C-580.81414451 148.58651476 -575.79696023 144.30651203 -570.6015625 140.13671875 C-568.05013271 138.04117506 -565.61673227 135.86036845 -563.1875 133.625 C-558.81299174 129.64316413 -554.25470925 125.98257917 -549.58349609 122.36108398 C-545.76676332 119.39947456 -542.00768748 116.38028042 -538.2800293 113.30737305 C-528.79060462 105.49469992 -518.97125548 98.18408914 -509 91 C-508.28730957 90.4858252 -507.57461914 89.97165039 -506.84033203 89.44189453 C-436.89627164 39.14044413 -358.82781964 -3.455449 0 0 Z " fill="#989898" transform="translate(1010,44)"/>
<path d="M0 0 C2.38776806 31.11401495 2.38776806 31.11401495 2 46 C-2.83976689 48.20295811 -7.58111225 49.81541089 -12.76171875 51.04296875 C-13.47479691 51.21629227 -14.18787506 51.38961578 -14.92256165 51.56819153 C-16.41681442 51.92986491 -17.91179854 52.28852907 -19.4074707 52.64428711 C-21.69361625 53.18895719 -23.97674173 53.74514075 -26.25976562 54.30273438 C-27.71858531 54.65432988 -29.17756442 55.00526468 -30.63671875 55.35546875 C-31.31594894 55.52104782 -31.99517914 55.68662689 -32.69499207 55.85722351 C-35.93472246 56.62162094 -38.64131703 57 -42 57 C-41.84313721 58.01553955 -41.68627441 59.0310791 -41.5246582 60.07739258 C-41.04575393 63.65792069 -40.77420187 67.15533628 -40.60546875 70.76171875 C-38.20115933 117.12970557 -21.9833239 156.46079339 7 193 C7.76957031 193.98226562 8.53914062 194.96453125 9.33203125 195.9765625 C15.19812652 203.31182397 21.54834143 210.18206916 28 217 C28.63808594 217.680625 29.27617187 218.36125 29.93359375 219.0625 C34.0138894 223.28956888 38.49521175 226.95454745 43.07421875 230.62890625 C44.97585989 232.17002264 46.85520994 233.73920744 48.70703125 235.33984375 C61.96541536 246.78099479 76.78063032 256.37739864 92 265 C92.82999512 265.47373047 93.65999023 265.94746094 94.51513672 266.43554688 C114.89699507 277.99486293 136.05500507 287.78454274 158 296 C155.38382805 308.19486666 138.91979805 320.62619547 129.796875 328.4296875 C125.53164555 332.15712715 121.63819996 336.2164398 117.9375 340.5 C114.37510736 344.6197738 110.70036266 348.62944478 107 352.625 C106.12782837 353.57536133 106.12782837 353.57536133 105.23803711 354.54492188 C102.36234032 357.63753806 99.42272957 360.64233302 96.30859375 363.49609375 C95.76775146 363.99294678 95.22690918 364.4897998 94.66967773 365.00170898 C93 366 93 366 89.0625 365.4375 C87.34601535 364.68817167 85.66226079 363.86296092 84 363 C82.83339844 362.40445312 81.66679687 361.80890625 80.46484375 361.1953125 C66.33447909 353.71024938 53.22660087 344.27715832 41 334 C40.1941748 333.32735107 40.1941748 333.32735107 39.37207031 332.64111328 C32.57156339 326.95276869 25.99974664 321.18194452 19.81640625 314.81640625 C17.94321986 312.87108115 17.94321986 312.87108115 15.375 310.9375 C12.48636958 308.58098571 10.22709296 305.8934021 7.8125 303.0625 C6.15318251 301.17431113 4.43458814 299.43006635 2.625 297.6875 C-1.04965826 294.06172854 -4.27437716 290.13986112 -7.5 286.11328125 C-9.22819183 283.96114236 -10.97065555 281.83879366 -12.75 279.73046875 C-57.90649201 225.66141107 -76.26651029 154.02109138 -79.76635742 84.99072266 C-80.00400919 81.94868064 -80.45447462 79.00080985 -81 76 C-92.93109555 83.64173135 -103.63271285 92.34303269 -114 102 C-115.10794922 103.02673828 -115.10794922 103.02673828 -116.23828125 104.07421875 C-122.89665575 110.4724081 -128.49432798 117.61246293 -134 125 C-134.40782715 125.5470459 -134.8156543 126.0940918 -135.23583984 126.65771484 C-155.03414228 153.52158246 -163.34753734 185.17876682 -167 218 C-167.13148438 219.14339844 -167.26296875 220.28679687 -167.3984375 221.46484375 C-167.7197019 224.97704511 -167.89830434 228.47612703 -168 232 C-168.02723145 232.90331055 -168.05446289 233.80662109 -168.08251953 234.73730469 C-169.73185422 299.9015846 -152.15994515 364.96654739 -108 414 C-107.48373047 414.5779834 -106.96746094 415.1559668 -106.43554688 415.75146484 C-101.29133277 421.49647471 -96.15405977 427.20906988 -90.21484375 432.15234375 C-88.46854723 433.6091308 -86.76002023 435.11119359 -85.06640625 436.62890625 C-70.33091796 449.77941556 -53.85029118 460.10321121 -36.57568359 469.58447266 C-34.88429284 470.51401612 -33.19695215 471.45097502 -31.51416016 472.39599609 C-0.767946 489.66103544 36.10300154 496.31694021 71 499 C72.09731445 499.09047607 73.19462891 499.18095215 74.32519531 499.27416992 C82.01133839 499.84018488 89.62128418 500.0551644 97.328125 499.95703125 C98.21852478 499.94684967 99.10892456 499.93666809 100.02630615 499.92617798 C103.69430353 499.88092907 107.36183863 499.83145847 111.02929688 499.75317383 C121.70860896 499.53743967 131.09843621 499.43242003 141 504 C141.8573877 504.37890381 142.71477539 504.75780762 143.59814453 505.14819336 C146.25495833 506.38076429 148.84583777 507.69844235 151.4375 509.0625 C152.39325928 509.56201172 153.34901855 510.06152344 154.33374023 510.57617188 C167.77908181 517.79957533 180.35775283 526.47718332 193 535 C194.99842148 536.33572088 196.99901217 537.66812339 199 539 C197.07438184 544.02381944 193.54204916 545.17590976 188.87109375 547.37109375 C120.12108187 577.05574537 36.50340406 577.60524353 -33 551 C-35.85236672 549.76976183 -38.67165265 548.48698135 -41.48486328 547.16992188 C-43.71808285 546.13113444 -45.96226138 545.15890416 -48.23828125 544.21875 C-60.05096132 539.27100809 -70.83062856 532.977698 -81.75341797 526.32006836 C-84.13774426 524.87978721 -84.13774426 524.87978721 -87.3046875 523.390625 C-90.40860839 521.78918176 -92.74442786 519.85765535 -95.375 517.5625 C-100.0982144 513.50292138 -104.97950374 509.74622358 -110 506.0625 C-117.09879835 500.79922428 -123.66205426 495.16563115 -130 489 C-130.68884277 488.33693848 -131.37768555 487.67387695 -132.08740234 486.99072266 C-141.87384434 477.54138093 -150.98842994 467.99980841 -159 457 C-159.83291066 455.88510078 -160.66624632 454.77051893 -161.5 453.65625 C-168.27893658 444.48770193 -174.26964893 434.85172969 -180 425 C-180.39574219 424.32130859 -180.79148438 423.64261719 -181.19921875 422.94335938 C-221.76364255 352.40556441 -226.46759301 259.2727441 -205.82080078 181.95019531 C-188.40150861 119.34022309 -145.82393635 61.22035622 -89 29 C-73.59803342 20.70239316 -56.83782269 13.72328594 -40 9 C-38.81792969 8.52949219 -37.63585937 8.05898438 -36.41796875 7.57421875 C-30.56097625 5.3310852 -24.4265624 4.14450391 -18.3125 2.8125 C-16.49782227 2.40354492 -16.49782227 2.40354492 -14.64648438 1.98632812 C-4.85650751 -0.17298684 -4.85650751 -0.17298684 0 0 Z " fill="#323232" transform="translate(217,643)"/>
<path d="M0 0 C0.69332428 0.00182281 1.38664856 0.00364563 2.10098267 0.00552368 C14.06037135 0.05811012 25.64132341 0.92152218 37.375 3.3125 C38.62651855 3.56193359 38.62651855 3.56193359 39.90332031 3.81640625 C73.49311 10.70008231 103.9991727 25.19487353 134.16333008 41.01318359 C165.0472815 58.04803515 165.0472815 58.04803515 199.33984375 59.65234375 C211.32333459 55.68077074 221.54390679 48.00693602 231.375 40.3125 C231.90287109 39.90016113 232.43074219 39.48782227 232.97460938 39.06298828 C235.8296019 36.83135285 238.67813039 34.59162357 241.5234375 32.34765625 C264.40544038 14.3072308 264.40544038 14.3072308 273.375 8.3125 C273.705 8.9725 274.035 9.6325 274.375 10.3125 C273.25041398 12.48400725 272.0835721 14.45968463 270.75 16.5 C270.35119629 17.11496338 269.95239258 17.72992676 269.54150391 18.36352539 C263.6240119 27.2218655 256.49269103 35.28306078 248.9140625 42.75390625 C246.53254551 45.10476973 244.30058467 47.51694169 242.12890625 50.0625 C237.04583479 55.95279101 231.40315947 61.31491815 225.8425293 66.74902344 C220.20050973 72.27136094 214.83317283 77.76305588 210.375 84.3125 C215.80868084 90.04128592 221.5157466 94.95554431 227.875 99.625 C228.7515625 100.27525146 229.628125 100.92550293 230.53125 101.59545898 C237.6616214 106.85579203 244.92633631 111.89625454 252.25878906 116.86865234 C265.80134694 126.10846398 279.10930289 135.68167969 292.375 145.3125 C303.9836692 153.72960127 315.63738315 162.07607308 327.375 170.3125 C328.14005859 170.84955566 328.90511719 171.38661133 329.69335938 171.93994141 C339.46594483 178.79715892 349.25863287 185.62509625 359.0625 192.4375 C366.42597421 197.55456288 373.77174434 202.69502538 381.09228516 207.87329102 C409.07531287 227.66363282 437.19829661 247.30800645 466.375 265.3125 C467.13071289 265.78042969 467.88642578 266.24835938 468.66503906 266.73046875 C530.1528895 304.65706852 602.47650217 339.1712292 676.19140625 339.515625 C677.19773102 339.52263931 678.20405579 339.52965363 679.24087524 339.53688049 C682.47312943 339.55430106 685.70520059 339.56073311 688.9375 339.5625 C690.59079819 339.56351212 690.59079819 339.56351212 692.27749634 339.56454468 C708.16342547 339.54906315 723.72350935 339.31058102 739.375 336.3125 C740.32213867 336.13557617 741.26927734 335.95865234 742.24511719 335.77636719 C772.33373987 329.97892541 798.59008067 317.09741933 820.375 295.3125 C824.46676955 295.61559404 827.83665096 296.18949058 831.375 298.3125 C826.94163427 326.47444824 785.75942608 361.75240044 764.375 378.3125 C763.64152344 378.93640625 762.90804687 379.5603125 762.15234375 380.203125 C725.96000811 410.74622815 678.7280704 422.25537357 632.15966797 419.09423828 C625.1837551 418.46288876 618.28045568 417.47655244 611.375 416.3125 C610.01689209 416.08699463 610.01689209 416.08699463 608.63134766 415.85693359 C581.51000162 411.14336993 555.14625788 401.09416541 530.375 389.3125 C529.08045898 388.70438477 529.08045898 388.70438477 527.75976562 388.08398438 C476.11141289 363.6778409 428.79894017 328.03832942 386.81640625 289.5390625 C384.71345167 287.62116793 382.58830844 285.73873955 380.4375 283.875 C377.0281142 280.9136649 373.6970569 277.87097514 370.375 274.8125 C366.41637814 271.16835671 362.4232324 267.57336283 358.359375 264.046875 C354.32125309 260.51749286 350.35585319 256.90615774 346.375 253.3125 C344.70859149 251.81221321 343.04192647 250.31221128 341.375 248.8125 C338.84999507 246.5407871 336.32586696 244.26814586 333.8046875 241.9921875 C330.05935744 238.61337292 326.30981793 235.24354035 322.5 231.9375 C318.53402924 228.48533922 314.66982354 224.92499119 310.80175781 221.36425781 C307.3647558 218.20552035 303.88478679 215.10611664 300.359375 212.046875 C296.32125309 208.51749286 292.35585319 204.90615774 288.375 201.3125 C286.70859149 199.81221321 285.04192647 198.31221128 283.375 196.8125 C280.84999507 194.5407871 278.32586696 192.26814586 275.8046875 189.9921875 C272.05935744 186.61337292 268.30981793 183.24354035 264.5 179.9375 C257.04142044 173.43171304 249.81353538 166.66621624 242.58984375 159.90209961 C236.9330533 154.60588737 231.27109838 149.34311605 225.375 144.3125 C224.34222944 143.42603572 223.30970072 142.53928965 222.27734375 141.65234375 C219.88555789 139.59833304 217.49049538 137.54822038 215.09375 135.5 C212.64653797 133.4067872 210.20970711 131.30243639 207.78125 129.1875 C196.52790732 117.83192677 196.52790732 117.83192677 183.375 111.3125 C182.570625 112.281875 181.76625 113.25125 180.9375 114.25 C177.14549714 118.79496037 172.73257102 122.34444345 168.07958984 125.97900391 C166.88830254 126.91094479 165.70147042 127.84859625 164.51806641 128.79052734 C153.62147051 137.45858142 142.32037989 145.1623332 130.375 152.3125 C129.69614746 152.71952148 129.01729492 153.12654297 128.31787109 153.54589844 C102.1386279 169.08799206 75.24234403 178.61705527 45.375 184.3125 C44.45605957 184.49329102 43.53711914 184.67408203 42.59033203 184.86035156 C12.32780301 190.53916227 -22.61734327 189.90562479 -52.625 183.3125 C-53.91929932 183.03962158 -53.91929932 183.03962158 -55.23974609 182.76123047 C-82.37267434 176.88286712 -111.7662385 164.28582948 -127.625 140.3125 C-139.99607746 120.47242073 -144.54661866 96.67291212 -139.8828125 73.6484375 C-139.19359325 70.84561256 -138.45713625 68.07582037 -137.625 65.3125 C-133.5940891 66.53971284 -130.20417157 67.9905919 -126.6328125 70.21875 C-125.69115234 70.79351074 -124.74949219 71.36827148 -123.77929688 71.96044922 C-122.27979492 72.87721436 -122.27979492 72.87721436 -120.75 73.8125 C-108.85621198 80.94618881 -96.56301669 86.37234089 -83.625 91.3125 C-83.625 94.3125 -83.625 94.3125 -85.1875 96.9375 C-87.10742471 101.44514933 -86.90124276 104.63028436 -85.625 109.3125 C-80.64656008 121.11406962 -69.05866778 127.57193243 -57.85009766 132.42822266 C-16.13247854 149.00724575 39.44810931 144.40392544 80.375 127.3125 C92.42996888 121.82689532 103.58058818 114.9461172 114.375 107.3125 C114.96087891 106.9 115.54675781 106.4875 116.15039062 106.0625 C119.65094395 103.59242929 123.13256029 101.09694049 126.60595703 98.58886719 C129.68993315 96.36377373 132.78233234 94.15048833 135.875 91.9375 C136.72010132 91.33035156 136.72010132 91.33035156 137.58227539 90.7109375 C140.27477036 88.7828492 142.98544837 86.92118525 145.78125 85.1484375 C146.6371875 84.54257813 147.493125 83.93671875 148.375 83.3125 C148.375 82.6525 148.375 81.9925 148.375 81.3125 C146.04986332 79.72370752 143.72657745 78.25532079 141.3125 76.8125 C136.40126517 73.82106196 131.54373393 70.79329269 126.79858398 67.54394531 C117.99019152 61.51306007 108.81873509 56.28100728 99.375 51.3125 C98.24191406 50.71179687 97.10882813 50.11109375 95.94140625 49.4921875 C89.47373635 46.27853879 83.17263465 44.35521579 76.15722656 42.85009766 C70.51683739 41.63430265 65.06480375 40.04292922 59.5625 38.3125 C34.93471108 30.6692277 8.65044773 27.06326363 -16.80859375 32.55859375 C-26.55212673 34.48336536 -33.64543196 34.08123779 -43.25 31.3125 C-44.96207642 30.8330896 -44.96207642 30.8330896 -46.70874023 30.34399414 C-59.2613174 26.72037757 -71.12131483 22.27779459 -81.625 14.3125 C-79.31493369 12.00243369 -78.27978082 11.83913245 -75.13793945 11.19921875 C-74.20548904 11.00561768 -73.27303864 10.8120166 -72.31233215 10.61254883 C-71.29789536 10.41040771 -70.28345856 10.2082666 -69.23828125 10 C-68.18908005 9.78561279 -67.13987885 9.57122559 -66.05888367 9.3503418 C-63.82767745 8.89623805 -61.5957003 8.44590871 -59.36303711 7.99902344 C-55.99457845 7.32393928 -52.62902978 6.63566772 -49.26367188 5.9453125 C-32.76919198 2.58801608 -16.89958336 -0.07125397 0 0 Z " fill="#989898" transform="translate(266.625,1100.6875)"/>
<path d="M0 0 C5.03717691 0.67094586 7.40348816 1.87748143 10.87109375 5.515625 C20.23861385 18.26406615 20.25765968 32.39949815 18.0480957 47.49584961 C13.26158868 75.04084287 1.12955322 101.74276609 -9.92182922 127.24078369 C-11.51689271 130.94835621 -12.90746818 134.66886909 -14.12890625 138.515625 C-13.58363281 138.61359375 -13.03835938 138.7115625 -12.4765625 138.8125 C-7.29322705 139.84030669 -2.81799563 141.38155602 1.92578125 143.7109375 C3.98226223 144.70674626 3.98226223 144.70674626 6.87109375 144.515625 C5.29520307 150.06705806 2.67227554 154.76480767 -0.12890625 159.765625 C-5.91588606 170.2330257 -11.53321514 180.7828839 -17.11291504 191.36175537 C-20.99250722 198.71640484 -24.8726285 206.06925841 -28.84375 213.375 C-71.25236403 291.42694703 -105.82245625 372.51184976 -119.37890625 499.953125 C-119.37958099 500.69963318 -119.38025574 501.44614136 -119.38095093 502.215271 C-119.34470077 527.57344513 -116.66730236 554.09906489 -98.41796875 573.35546875 C-90.42581243 580.89755484 -80.89690294 584.09962172 -70.00390625 583.953125 C-69.17697266 583.94337646 -68.35003906 583.93362793 -67.49804688 583.92358398 C-29.48256251 582.84276595 3.33165062 551.04072671 28.68359375 525.828125 C29.3892749 525.12719727 30.09495605 524.42626953 30.82202148 523.70410156 C35.37448062 519.13713559 39.69322595 514.42679342 43.87109375 509.515625 C44.40984131 508.88358154 44.94858887 508.25153809 45.50366211 507.6003418 C54.80507699 496.60419539 63.46502183 485.20597568 71.87109375 473.515625 C72.38913574 472.79906738 72.90717773 472.08250977 73.44091797 471.34423828 C98.29939708 436.90330657 119.32210395 399.93309337 139.27685547 362.49560547 C140.71403314 359.80920567 142.16614075 357.13169597 143.625 354.45703125 C148.17621945 346.05209054 152.24303849 337.55825227 155.99609375 328.765625 C169.74866932 296.60812544 169.74866932 296.60812544 180.40625 291.23828125 C183.82511593 290.23591961 186.43558825 290.72281604 189.87109375 291.515625 C193.39999822 298.57343394 189.859689 307.58965816 187.6015625 314.6171875 C175.84373986 349.01425242 157.22107145 382.24055921 139.171875 413.7265625 C136.20437284 418.90610544 133.31603976 424.12670396 130.43725586 429.35595703 C122.82980763 443.1630554 114.92841854 456.77356035 106.81005859 470.28613281 C104.92332925 473.42862283 103.047289 476.57731077 101.171875 479.7265625 C94.21183886 491.35635026 86.94949636 502.63073898 78.87109375 513.515625 C78.08436279 514.57837646 78.08436279 514.57837646 77.28173828 515.66259766 C62.44189011 535.61102679 46.16752011 555.66598391 26.6875 571.25 C24.92240926 572.66990656 23.17657205 574.11446705 21.4609375 575.59375 C-13.22588126 605.27819078 -61.25936291 628.33964459 -107.74609375 625.27734375 C-130.95743354 623.00217282 -151.89587573 613.06273763 -167.1640625 595.078125 C-196.57883891 556.71611044 -199.64149959 507.93273831 -194.12890625 461.515625 C-185.87848904 399.35411286 -166.35601944 338.85763201 -138.68701172 282.69677734 C-136.31062526 277.8449573 -134.00488959 272.96015162 -131.69140625 268.078125 C-128.66330579 261.70719148 -125.57167884 255.37196672 -122.40234375 249.0703125 C-122.08396042 248.43683395 -121.76557709 247.80335541 -121.43754578 247.15068054 C-119.87257743 244.03985876 -118.30189568 240.93209417 -116.72290039 237.82836914 C-116.15434326 236.70293701 -115.58578613 235.57750488 -115 234.41796875 C-114.4939624 233.42273193 -113.9879248 232.42749512 -113.46655273 231.40209961 C-112.11657819 228.48902258 -111.08411567 225.5784908 -110.12890625 222.515625 C-115.62261902 228.89710504 -121.04416688 235.30134577 -126.12890625 242.015625 C-137.76599562 257.32964732 -150.81689742 271.27648802 -164.37890625 284.890625 C-165.63852173 286.15724976 -165.63852173 286.15724976 -166.92358398 287.44946289 C-171.29053888 291.80519945 -175.72630122 296.01151275 -180.40429688 300.03173828 C-182.56768914 301.89316215 -184.65752323 303.82932941 -186.75390625 305.765625 C-218.64383799 334.515625 -218.64383799 334.515625 -228.12890625 334.515625 C-225.58343343 319.07222628 -222.58612517 303.78074041 -219.12890625 288.515625 C-218.51321777 288.38816895 -217.8975293 288.26071289 -217.26318359 288.12939453 C-214.2798378 287.27145226 -212.89820845 285.61016587 -210.75390625 283.390625 C-209.56861328 282.16859375 -209.56861328 282.16859375 -208.359375 280.921875 C-206.53267633 278.95121584 -204.78115332 276.95771735 -203.06640625 274.890625 C-201.03434163 272.4598992 -198.91530616 270.38301404 -196.50390625 268.328125 C-187.28428129 260.42558932 -179.31754206 251.83460043 -171.96484375 242.19921875 C-169.52785276 239.0058908 -167.00042168 235.89812617 -164.44335938 232.80053711 C-157.25050359 224.08038677 -150.53203247 215.05794909 -143.88623047 205.91699219 C-142.17241082 203.57507358 -140.43826712 201.2499803 -138.6953125 198.9296875 C-124.12925618 179.49447173 -111.06819876 159.05567554 -98.12890625 138.515625 C-97.13682495 136.94264135 -96.14464101 135.36972243 -95.15234375 133.796875 C-94.67442383 133.03922852 -94.19650391 132.28158203 -93.70410156 131.50097656 C-91.70994932 128.34121883 -89.71354947 125.18288801 -87.71582031 122.02539062 C-86.64357156 120.32958799 -85.57264128 118.63295109 -84.50292969 116.93554688 C-75.20035561 102.19083292 -65.61186406 87.64583171 -55.94140625 73.140625 C-55.35447998 72.25978241 -54.76755371 71.37893982 -54.1628418 70.47140503 C-47.88149113 61.04992772 -41.56526412 51.65323249 -35.17578125 42.3046875 C-34.4081823 41.18098251 -34.4081823 41.18098251 -33.62507629 40.03457642 C-28.45538978 32.49151394 -23.17121291 25.03515917 -17.72851562 17.68652344 C-16.64997749 16.22279312 -15.58113583 14.75187463 -14.52148438 13.27441406 C-12.97776614 11.12700186 -11.40221398 9.00706547 -9.81640625 6.890625 C-9.36128662 6.24448242 -8.90616699 5.59833984 -8.43725586 4.93261719 C-5.90438778 1.63674934 -4.1142936 0.11644227 0 0 Z " fill="#989898" transform="translate(1338.12890625,541.484375)"/>
<path d="M0 0 C56.14537066 -0.94382304 109.5076278 9.8360314 157.36914062 40.52880859 C162.68547646 43.90449409 168.15207499 46.64596239 174 49 C174 49.66 174 50.32 174 51 C174.51820313 51.21785156 175.03640625 51.43570313 175.5703125 51.66015625 C178.98663531 53.54407703 181.86025092 55.97377167 184.875 58.4375 C186.22482685 59.52918214 187.57509723 60.62031607 188.92578125 61.7109375 C189.60721191 62.26233398 190.28864258 62.81373047 190.99072266 63.38183594 C193.99463464 65.80102532 197.02624738 68.1841093 200.0625 70.5625 C200.63315186 71.01020752 201.20380371 71.45791504 201.79174805 71.91918945 C204.12449926 73.74875311 206.45857358 75.57661456 208.79394531 77.40283203 C216.60544074 83.51149742 224.37152635 89.66266435 232 96 C232.50354004 96.41717285 233.00708008 96.8343457 233.52587891 97.26416016 C240.9155192 103.39908454 248.05665853 109.74890295 255.08203125 116.296875 C257.35855725 118.4057853 259.65210398 120.47204788 262 122.5 C265.52790887 125.55156675 268.95315387 128.70582287 272.375 131.875 C273.50907416 132.92322081 274.64318836 133.97139832 275.77734375 135.01953125 C277.70981408 136.80566247 279.63942293 138.5946536 281.56640625 140.38671875 C303.89409989 161.63335358 303.89409989 161.63335358 332.2421875 169.515625 C353.8513494 166.55054249 374.08730635 148.91269365 389 134 C393.8176065 134.16143655 396.95867477 136.91368086 400.5625 139.8125 C401.12646484 140.25142578 401.69042969 140.69035156 402.27148438 141.14257812 C405.38003344 143.58942434 408.27046737 146.13699389 411 149 C409.30250684 157.48746581 401.5167728 162.64927856 395.26171875 168.01953125 C393.00968448 169.99151981 390.8122357 172.01605833 388.61987305 174.05395508 C383.98704673 178.35560585 379.2885349 182.46512508 374.24609375 186.28515625 C368.38261142 190.76179754 362.74700265 195.54140204 357.08203125 200.265625 C338.46721924 215.75707387 319.11867392 230.71009782 297.75 242.25 C297.09588135 242.60860107 296.4417627 242.96720215 295.76782227 243.33666992 C290.99936017 245.81392777 286.27645436 247.0492054 281 248 C280.608125 247.46375 280.21625 246.9275 279.8125 246.375 C271.35546039 235.29336189 261.27404568 224.80008769 250.01171875 216.5625 C244.66754525 212.41168563 240.12423613 207.314748 235.7109375 202.2109375 C232.04519612 198.00097829 228.19884879 194.00654191 224.25 190.0625 C223.5475415 189.36084717 222.84508301 188.65919434 222.12133789 187.9362793 C217.5592947 183.42749562 212.87451381 179.22781774 207.828125 175.26171875 C204.35505935 172.48422564 201.02871216 169.55854011 197.6875 166.625 C191.25718028 161.01184648 184.65553111 155.68235141 177.89697266 150.47167969 C175.86193184 148.89288612 173.84237912 147.29561994 171.82421875 145.6953125 C127.50822884 110.66987619 79.46014994 83.24549758 26 65 C25.13189697 64.69602295 24.26379395 64.3920459 23.36938477 64.07885742 C19.54784987 62.75873385 15.99515596 61.63453619 11.9375 61.3125 C10.638125 61.209375 9.33875 61.10625 8 61 C4.84100512 52.8949217 3.84545624 44.70809005 2.875 36.125 C2.70159459 34.64980954 2.52809145 33.17463056 2.35449219 31.69946289 C1.13594358 21.14358887 0.33758149 10.62159679 0 0 Z " fill="#333333" transform="translate(265,637)"/>
<path d="M0 0 C0.71018009 4.59775043 1.17714913 9.11554695 1.39453125 13.76171875 C3.79884067 60.12970557 20.0166761 99.46079339 49 136 C49.76957031 136.98226562 50.53914063 137.96453125 51.33203125 138.9765625 C57.19812652 146.31182397 63.54834143 153.18206916 70 160 C70.63808594 160.680625 71.27617187 161.36125 71.93359375 162.0625 C76.0138894 166.28956888 80.49521175 169.95454745 85.07421875 173.62890625 C86.97585989 175.17002264 88.85520994 176.73920744 90.70703125 178.33984375 C103.96541536 189.78099479 118.78063032 199.37739864 134 208 C135.24499268 208.7105957 135.24499268 208.7105957 136.51513672 209.43554688 C156.89699507 220.99486293 178.05500507 230.78454274 200 239 C197.38382805 251.19486666 180.91979805 263.62619547 171.796875 271.4296875 C167.53164555 275.15712715 163.63819996 279.2164398 159.9375 283.5 C156.37510736 287.6197738 152.70036266 291.62944478 149 295.625 C148.41855225 296.25857422 147.83710449 296.89214844 147.23803711 297.54492188 C144.36234032 300.63753806 141.42272957 303.64233302 138.30859375 306.49609375 C137.76775146 306.99294678 137.22690918 307.4897998 136.66967773 308.00170898 C135 309 135 309 131.0625 308.4375 C129.34601535 307.68817167 127.66226079 306.86296092 126 306 C124.83339844 305.40445312 123.66679687 304.80890625 122.46484375 304.1953125 C108.33447909 296.71024938 95.22660087 287.27715832 83 277 C82.1941748 276.32735107 82.1941748 276.32735107 81.37207031 275.64111328 C74.57156339 269.95276869 67.99974664 264.18194452 61.81640625 257.81640625 C59.94321986 255.87108115 59.94321986 255.87108115 57.375 253.9375 C54.48636958 251.58098571 52.22709296 248.8934021 49.8125 246.0625 C48.15318251 244.17431113 46.43458814 242.43006635 44.625 240.6875 C40.95034174 237.06172854 37.72562284 233.13986112 34.5 229.11328125 C32.77180817 226.96114236 31.02934445 224.83879366 29.25 222.73046875 C-16.5364467 167.90712182 -34.83185991 94.99432092 -38 25 C-38.05397949 24.16662109 -38.10795898 23.33324219 -38.16357422 22.47460938 C-38.38122152 17.51721282 -38.38122152 17.51721282 -36.6640625 15.1875 C-10.58552632 0 -10.58552632 0 0 0 Z " fill="#989898" transform="translate(175,700)"/>
<path d="M0 0 C3.20384177 2.95607449 5.33496537 5.94635638 7.51171875 9.71484375 C7.99950554 10.55294334 7.99950554 10.55294334 8.49714661 11.40797424 C9.56634086 13.24788574 10.6268178 15.0926706 11.6875 16.9375 C12.44335051 18.24126822 13.19987293 19.54464711 13.95703125 20.84765625 C15.52913753 23.55432588 17.09834229 26.26264616 18.66552734 28.97216797 C21.9045303 34.56711428 25.17853493 40.14144903 28.45251465 45.7159729 C30.21087353 48.71072589 31.96664006 51.70699796 33.72265625 54.703125 C34.42984425 55.90950873 35.13703829 57.11588892 35.84423828 58.32226562 C37.68535328 61.46310852 39.52622221 64.60409555 41.3669281 67.74517822 C42.11735802 69.02563775 42.86789649 70.30603367 43.61854553 71.58636475 C45.44268871 74.69786982 47.26528839 77.81025472 49.08422852 80.92480469 C52.09012724 86.06790305 55.10624031 91.20169739 58.21875 96.28125 C58.68676025 97.05178711 59.15477051 97.82232422 59.63696289 98.61621094 C60.45879085 99.9645827 61.290129 101.30724443 62.13452148 102.64160156 C70.00780644 115.61606346 68.18653562 133.05194931 68.18530273 147.66040039 C68.18747707 150.53221748 68.20565637 153.40364173 68.22460938 156.27539062 C68.27942026 173.67681846 66.45921924 190.49739771 63.5 207.625 C63.18095703 209.52958984 63.18095703 209.52958984 62.85546875 211.47265625 C61.74330808 218.02962806 60.51702568 224.52454777 59 231 C55.5623038 229.85410127 55.28251392 229.31249188 53.46875 226.34375 C52.9938916 225.57764404 52.5190332 224.81153809 52.02978516 224.0222168 C51.52495605 223.18988525 51.02012695 222.35755371 50.5 221.5 C49.41494959 219.74554482 48.32899481 217.99164866 47.2421875 216.23828125 C46.6965918 215.35350098 46.15099609 214.4687207 45.58886719 213.55712891 C43.31725537 209.90118819 40.97595214 206.29272986 38.625 202.6875 C28.42965939 186.99235915 18.45195864 171.15662915 8.46777344 155.32666016 C5.4798839 150.5903682 2.48886106 145.85605308 -0.50268555 141.12207031 C-2.99408463 137.17894202 -5.48257255 133.23403807 -7.96484375 129.28515625 C-13.55670761 120.39779117 -19.22220532 111.56674149 -24.99047852 102.79272461 C-27.9909825 98.19673232 -30.88611833 93.55629499 -33.6875 88.8359375 C-34.30318848 87.80178711 -34.91887695 86.76763672 -35.55322266 85.70214844 C-36.73605869 83.70423026 -37.90826942 81.69996906 -39.06787109 79.68847656 C-42.44433765 73.98711462 -45.70570248 70.00758217 -51 66 C-49.43581306 60.82615088 -46.18131072 57.29280392 -42.75 53.25 C-41.47511099 51.72538535 -40.20037568 50.20064218 -38.92578125 48.67578125 C-38.27303223 47.89928223 -37.6202832 47.1227832 -36.94775391 46.32275391 C-33.92113094 42.71341687 -30.92898201 39.07597108 -27.9375 35.4375 C-27.36273926 34.73898926 -26.78797852 34.04047852 -26.19580078 33.32080078 C-25.0398229 31.91551343 -23.88422175 30.5099161 -22.72900391 29.10400391 C-21.57051671 27.69425487 -20.41132982 26.28508054 -19.25146484 24.87646484 C-12.5719303 16.75716534 -6.03983387 8.61269362 0 0 Z " fill="#989898" transform="translate(701,939)"/>
<path d="M0 0 C1.05960938 0.36222656 2.11921875 0.72445313 3.2109375 1.09765625 C15.10339274 5.60700624 24.9912122 13.14416276 34 22 C35.03060547 23.01126953 35.03060547 23.01126953 36.08203125 24.04296875 C49.45923308 38.10618093 58.69268362 59.03600981 60.27734375 78.38671875 C59.95615817 82.57117882 58.60234919 85.54501516 56.6875 89.1875 C35.67040091 131.77104101 21.84318254 179.51829676 13 226 C12.83661133 226.82935059 12.67322266 227.65870117 12.50488281 228.51318359 C9.06509024 246.06385561 7.21067728 264.35029593 6.765625 282.2265625 C6.73807129 283.33241699 6.71051758 284.43827148 6.68212891 285.57763672 C6.64491581 287.64407654 6.63042463 289.71109009 6.64208984 291.77783203 C6.60554875 294.27451306 6.53973981 296.56210469 6 299 C3.8125 300.68359375 3.8125 300.68359375 1 302 C-1.08709516 304.27771802 -2.8322285 306.79983628 -4.625 309.3125 C-5.68608682 310.76405493 -6.74861583 312.21455658 -7.8125 313.6640625 C-8.34488281 314.39270508 -8.87726563 315.12134766 -9.42578125 315.87207031 C-12.19424466 319.61430466 -15.09020149 323.2536263 -17.98364258 326.89941406 C-20.25752505 329.76986646 -22.50424543 332.65452953 -24.69921875 335.5859375 C-25.13862793 336.16964111 -25.57803711 336.75334473 -26.03076172 337.35473633 C-27.2300844 338.95269102 -28.42196297 340.55622519 -29.61328125 342.16015625 C-32.20068717 345.23878817 -34.84700344 347.52037067 -38 350 C-38.0928125 349.24589844 -38.185625 348.49179687 -38.28125 347.71484375 C-40.05326699 341.02162742 -48.55999564 336.76729499 -54.01953125 333.06640625 C-56.06534746 331.76295009 -56.06534746 331.76295009 -59 332 C-57.51460819 327.47630676 -54.96679095 324.14231112 -52 320.5 C-50.99466886 319.23577473 -49.98946291 317.9714499 -48.984375 316.70703125 C-47.19946692 314.4804553 -45.39796056 312.27269751 -43.578125 310.07421875 C-4.13616621 261.16883697 26.19998423 188.71885538 26.25 125.5625 C26.25067474 124.79988861 26.25134949 124.03727722 26.25204468 123.2515564 C26.23651638 112.22283622 25.93024713 101.70074054 23 91 C22.67128906 89.75476563 22.34257813 88.50953125 22.00390625 87.2265625 C16.49728819 68.74414202 5.99855549 51.84386595 -11 42 C-40.78778177 26.11067883 -72.29358623 32.51413884 -103.59155273 39.66235352 C-121.02649216 43.59048094 -121.02649216 43.59048094 -126.6875 40.5625 C-128.44882223 37.12372802 -128.37484312 35.10856773 -127.30859375 31.421875 C-119.42293792 16.82752689 -92.72131161 8.35686315 -77.80566406 3.80566406 C-52.68895091 -3.40675792 -25.42376572 -8.91292936 0 0 Z " fill="#989898" transform="translate(713,440)"/>
<path d="M0 0 C3.92420023 1.30806674 4.19545107 2.71906467 6.125 6.3125 C9.26244485 11.888715 12.79126868 16.88796535 16.69921875 21.9453125 C18.99553859 24.9940767 21.08784879 28.12601635 23.1875 31.3125 C37.72657079 52.44870587 58.45095367 68.95602917 82.77734375 77.33984375 C84.52724609 77.94505859 84.52724609 77.94505859 86.3125 78.5625 C87.36050781 78.89378906 88.40851563 79.22507812 89.48828125 79.56640625 C92 81 92 81 93.35546875 84.15234375 C93.56816406 85.09207031 93.78085937 86.03179688 94 87 C91.59152248 89.40847752 85.59454082 88.44330972 82.38671875 88.5546875 C80.57454109 88.61775589 80.57454109 88.61775589 78.72575378 88.68209839 C58.24907634 89.32276004 37.74785662 89.14936002 17.26391602 89.13037109 C11.05232941 89.12466557 4.84078598 89.12797153 -1.37079906 89.13394356 C-6.23997814 89.1375981 -11.10914738 89.13638857 -15.9783268 89.13381577 C-18.26589272 89.13316044 -20.55345961 89.13392453 -22.8410244 89.13629532 C-34.7893513 89.14597222 -46.71699862 89.01208894 -58.6574707 88.55419922 C-59.69285823 88.51547762 -60.72824575 88.47675602 -61.79500866 88.43686104 C-66.92975151 88.219058 -71.92951483 87.84540888 -77 87 C-76.4765625 84.18359375 -76.4765625 84.18359375 -75 81 C-72.36912545 79.72670488 -70.1402148 78.87082714 -67.375 78.0625 C-59.42023465 75.41415707 -53.27377204 72.46333031 -49.3125 64.6875 C-48.879375 63.800625 -48.44625 62.91375 -48 62 C-47.25105469 61.75894531 -46.50210938 61.51789063 -45.73046875 61.26953125 C-41.87115127 59.47514186 -40.22088612 56.47483895 -38 53 C-37.03075631 51.53766147 -36.05931615 50.07677693 -35.0859375 48.6171875 C-34.5815918 47.85631836 -34.07724609 47.09544922 -33.55761719 46.31152344 C-31.00179477 42.51865092 -28.31584887 38.82273932 -25.625 35.125 C-25.08673584 34.38330566 -24.54847168 33.64161133 -23.99389648 32.87744141 C-22.89245992 31.35996467 -21.79048659 29.8428774 -20.68798828 28.32617188 C-18.95246118 25.93448802 -17.22332579 23.53830526 -15.49609375 21.140625 C-14.92101074 20.34253418 -14.34592773 19.54444336 -13.75341797 18.72216797 C-12.66480466 17.21106078 -11.57655918 15.6996885 -10.48876953 14.18798828 C-7.0474015 9.41662295 -3.54560599 4.69440438 0 0 Z " fill="#989898" transform="translate(823,1148)"/>
</svg>
