<?xml version="1.0" encoding="UTF-8"?>
<svg version="1.1" xmlns="http://www.w3.org/2000/svg" width="45" height="45">
<path d="M0 0 C5.45695378 3.25117361 10.02707729 8.16389352 12.4140625 14.08984375 C13.49051604 22.3081525 13.05139837 29.12146439 8.26953125 36.02734375 C4.23914287 40.50743862 -0.92515121 43.72908775 -7.00390625 44.328125 C-14.6722365 44.53362327 -19.89988392 43.57921068 -25.5625 38.21875 C-31.44131767 31.81979003 -33.07553076 26.77107934 -32.89453125 18.09375 C-32.25274857 11.84652364 -29.71123549 7.85274475 -25.0859375 3.71484375 C-18.08013058 -1.98533552 -8.55062671 -3.00951061 0 0 Z M-12.5859375 2.08984375 C-15.75202867 6.17259688 -15.75202867 6.17259688 -16.5859375 11.08984375 C-14.9359375 11.08984375 -13.2859375 11.08984375 -11.5859375 11.08984375 C-11.5859375 8.11984375 -11.5859375 5.14984375 -11.5859375 2.08984375 C-11.9159375 2.08984375 -12.2459375 2.08984375 -12.5859375 2.08984375 Z M-8.5859375 2.08984375 C-8.5859375 5.05984375 -8.5859375 8.02984375 -8.5859375 11.08984375 C-6.9359375 11.08984375 -5.2859375 11.08984375 -3.5859375 11.08984375 C-4.0652622 6.77592149 -5.331736 4.92414828 -8.5859375 2.08984375 Z M-1.5859375 4.08984375 C-0.9259375 6.39984375 -0.2659375 8.70984375 0.4140625 11.08984375 C2.3940625 11.08984375 4.3740625 11.08984375 6.4140625 11.08984375 C5.46289116 9.91733065 4.50289241 8.7519736 3.5390625 7.58984375 C3.00539063 6.94015625 2.47171875 6.29046875 1.921875 5.62109375 C1.42429688 5.11578125 0.92671875 4.61046875 0.4140625 4.08984375 C-0.2459375 4.08984375 -0.9059375 4.08984375 -1.5859375 4.08984375 Z M-19.5859375 4.08984375 C-20.75553737 5.06550487 -21.92154927 6.04546875 -23.0859375 7.02734375 C-23.735625 7.57261719 -24.3853125 8.11789063 -25.0546875 8.6796875 C-25.56 9.14503906 -26.0653125 9.61039063 -26.5859375 10.08984375 C-26.5859375 10.41984375 -26.5859375 10.74984375 -26.5859375 11.08984375 C-24.6059375 11.08984375 -22.6259375 11.08984375 -20.5859375 11.08984375 C-19.46077665 9.25699932 -19.46077665 9.25699932 -18.5859375 7.08984375 C-18.9159375 6.09984375 -19.2459375 5.10984375 -19.5859375 4.08984375 Z M-28.5859375 14.08984375 C-28.78221141 15.6721134 -28.96759288 17.25573646 -29.1484375 18.83984375 C-29.25285156 19.7215625 -29.35726563 20.60328125 -29.46484375 21.51171875 C-29.58050426 23.97416826 -29.32232445 25.75522439 -28.5859375 28.08984375 C-25.9459375 28.08984375 -23.3059375 28.08984375 -20.5859375 28.08984375 C-20.5859375 23.46984375 -20.5859375 18.84984375 -20.5859375 14.08984375 C-23.2259375 14.08984375 -25.8659375 14.08984375 -28.5859375 14.08984375 Z M-17.5859375 14.08984375 C-18.36509842 19.11110301 -18.71610351 23.06688371 -17.5859375 28.08984375 C-15.6059375 28.08984375 -13.6259375 28.08984375 -11.5859375 28.08984375 C-11.5859375 23.46984375 -11.5859375 18.84984375 -11.5859375 14.08984375 C-13.5659375 14.08984375 -15.5459375 14.08984375 -17.5859375 14.08984375 Z M-8.5859375 14.08984375 C-8.5859375 18.70984375 -8.5859375 23.32984375 -8.5859375 28.08984375 C-6.6059375 28.08984375 -4.6259375 28.08984375 -2.5859375 28.08984375 C-1.34216357 25.60229589 -1.45287515 23.86329074 -1.4609375 21.08984375 C-1.45707031 19.75953125 -1.45707031 19.75953125 -1.453125 18.40234375 C-1.43465848 16.06307409 -1.43465848 16.06307409 -2.5859375 14.08984375 C-4.5659375 14.08984375 -6.5459375 14.08984375 -8.5859375 14.08984375 Z M1.4140625 14.08984375 C1.4140625 18.70984375 1.4140625 23.32984375 1.4140625 28.08984375 C3.7240625 28.08984375 6.0340625 28.08984375 8.4140625 28.08984375 C9.59041547 25.73713782 9.54765609 24.26909175 9.5390625 21.65234375 C9.54164062 20.86988281 9.54421875 20.08742188 9.546875 19.28125 C9.49788798 16.91089028 9.49788798 16.91089028 8.4140625 14.08984375 C6.1040625 14.08984375 3.7940625 14.08984375 1.4140625 14.08984375 Z M-26.5859375 31.08984375 C-25.63476616 32.26235685 -24.67476741 33.4277139 -23.7109375 34.58984375 C-23.17726563 35.23953125 -22.64359375 35.88921875 -22.09375 36.55859375 C-21.59617187 37.06390625 -21.09859375 37.56921875 -20.5859375 38.08984375 C-19.9259375 38.08984375 -19.2659375 38.08984375 -18.5859375 38.08984375 C-18.86134454 34.27170928 -18.86134454 34.27170928 -20.5859375 31.08984375 C-22.58552114 31.04903592 -24.58639004 31.04730019 -26.5859375 31.08984375 Z M-16.5859375 31.08984375 C-16.1066128 35.40376601 -14.840139 37.25553922 -11.5859375 40.08984375 C-11.5859375 37.11984375 -11.5859375 34.14984375 -11.5859375 31.08984375 C-13.2359375 31.08984375 -14.8859375 31.08984375 -16.5859375 31.08984375 Z M-8.5859375 31.08984375 C-8.5859375 34.05984375 -8.5859375 37.02984375 -8.5859375 40.08984375 C-5.331736 37.25553922 -4.0652622 35.40376601 -3.5859375 31.08984375 C-5.2359375 31.08984375 -6.8859375 31.08984375 -8.5859375 31.08984375 Z M0.4140625 31.08984375 C-0.2459375 33.39984375 -0.9059375 35.70984375 -1.5859375 38.08984375 C1.81726992 37.07807938 3.17131581 36.44140793 5.2265625 33.46484375 C5.6184375 32.68109375 6.0103125 31.89734375 6.4140625 31.08984375 C4.4340625 31.08984375 2.4540625 31.08984375 0.4140625 31.08984375 Z " fill="#888078" transform="translate(32.5859375,0.91015625)"/>
</svg>
