<?xml version="1.0" encoding="UTF-8"?>
<svg version="1.1" xmlns="http://www.w3.org/2000/svg" width="38" height="50">
<path d="M0 0 C0.71051514 0.00241699 1.42103027 0.00483398 2.15307617 0.00732422 C7.50531531 0.19520826 10.9013972 1.18618342 14.76953125 4.875 C19.23941942 10.19453634 19.73199812 14.81293882 19.53125 21.61328125 C19.02219475 25.98074391 17.54706976 28.90897263 15.1875 32.5625 C14.65511719 33.449375 14.12273438 34.33625 13.57421875 35.25 C10.1790862 40.79061542 6.56225385 45.76094089 2.1875 50.5625 C-1.34026844 50.30830227 -2.58515522 49.80249701 -5.05859375 47.19140625 C-5.78175781 46.17949219 -6.50492188 45.16757812 -7.25 44.125 C-7.63542969 43.5902002 -8.02085938 43.05540039 -8.41796875 42.50439453 C-15.83759368 32.06436395 -20.334394 24.67088891 -18.8125 11.5625 C-15.13674329 3.35988855 -8.80308766 -0.03086997 0 0 Z M-7.8125 12.5625 C-8.79102887 15.28758912 -9.12128295 17.68052577 -8.8125 20.5625 C-7.04785939 23.42243478 -5.81684303 25.06032849 -2.8125 26.5625 C0.86136532 26.97070726 2.74036137 26.81091035 6 25 C8.86550813 21.80700523 9.1875 19.82130812 9.1875 15.5625 C7.59911066 11.98862398 6.47115642 10.75160428 3.1875 8.5625 C-1.84209609 7.90646573 -4.44942526 8.71898601 -7.8125 12.5625 Z " fill="#8E8780" transform="translate(18.8125,-0.5625)"/>
</svg>
