<?xml version="1.0" encoding="UTF-8"?>
<svg version="1.1" xmlns="http://www.w3.org/2000/svg" width="52" height="38">
<path d="M0 0 C0.97448593 -0.00637985 1.94897186 -0.0127597 2.95298767 -0.01933289 C4.54355736 -0.02100212 4.54355736 -0.02100212 6.16625977 -0.02270508 C7.24770767 -0.02603348 8.32915558 -0.02936188 9.44337463 -0.03279114 C11.73584567 -0.0378651 14.02832413 -0.04019932 16.32080078 -0.04003906 C19.83907168 -0.04222478 23.35702883 -0.06037361 26.87524414 -0.0793457 C29.09724827 -0.0822796 31.3192539 -0.08426442 33.54125977 -0.08520508 C34.59961533 -0.09239059 35.65797089 -0.09957611 36.74839783 -0.10697937 C37.72603592 -0.10390274 38.70367401 -0.10082611 39.7109375 -0.09765625 C41.00547096 -0.09979378 41.00547096 -0.09979378 42.32615662 -0.10197449 C44.42016602 0.14526367 44.42016602 0.14526367 46.42016602 2.14526367 C46.63192321 4.61915242 46.72416073 6.97837492 46.72094727 9.45385742 C46.72523239 10.17638199 46.72951752 10.89890656 46.7339325 11.64332581 C46.73967839 13.17236279 46.74017414 14.70142711 46.73583984 16.23046875 C46.73268272 18.57038041 46.7561236 20.90902434 46.78149414 23.2487793 C46.78376741 24.73380374 46.7844705 26.21883159 46.78344727 27.70385742 C46.79265701 28.40393417 46.80186676 29.10401093 46.81135559 29.82530212 C46.76517437 34.67418046 46.76517437 34.67418046 45.18585205 36.83062744 C42.91577669 38.52080523 41.61134738 38.51973256 38.796875 38.51757812 C37.39543495 38.52692131 37.39543495 38.52692131 35.96568298 38.53645325 C34.95937332 38.5272435 33.95306366 38.51803375 32.91625977 38.50854492 C31.88203384 38.50904343 30.84780792 38.50954193 29.78224182 38.51005554 C27.59585651 38.50771465 25.40946853 38.49798526 23.22314453 38.48144531 C19.86735075 38.45783182 16.51234998 38.46088696 13.15649414 38.4675293 C11.03474459 38.46195341 8.9129984 38.4548441 6.79125977 38.44604492 C5.78292587 38.44695633 4.77459198 38.44786774 3.73570251 38.44880676 C2.80456131 38.43927475 1.8734201 38.42974274 0.9140625 38.41992188 C0.09260239 38.41531448 -0.72885773 38.41070709 -1.57521057 38.40596008 C-3.57983398 38.14526367 -3.57983398 38.14526367 -5.57983398 36.14526367 C-5.76721048 33.50410254 -5.83553265 30.96972387 -5.81030273 28.32885742 C-5.80984451 27.55719742 -5.80938629 26.78553741 -5.80891418 25.99049377 C-5.80589186 24.35888125 -5.79800611 22.72727162 -5.78564453 21.09570312 C-5.76738186 18.58933367 -5.76513487 16.08333334 -5.76538086 13.5769043 C-5.76046597 11.99421879 -5.75463777 10.4115358 -5.74780273 8.82885742 C-5.74668991 8.07471054 -5.74557709 7.32056366 -5.74443054 6.54356384 C-5.68452429 0.02513058 -5.68452429 0.02513058 0 0 Z M-1.57983398 2.14526367 C0.07016602 3.79526367 1.72016602 5.44526367 3.42016602 7.14526367 C4.55934243 8.31474973 5.69631008 9.48639435 6.83032227 10.66088867 C8.04765223 11.90579569 9.26510214 13.15058543 10.48266602 14.39526367 C11.09432617 15.03206055 11.70598633 15.66885742 12.33618164 16.32495117 C12.93237305 16.93081055 13.52856445 17.53666992 14.14282227 18.16088867 C14.67657471 18.71035156 15.21032715 19.25981445 15.76025391 19.82592773 C17.69076239 21.36033983 18.96242981 21.9316271 21.42016602 22.14526367 C23.54598311 20.37172484 25.3131444 18.67022001 27.17016602 16.64526367 C28.23058766 15.5326021 29.29309089 14.42192067 30.35766602 13.31323242 C30.87586914 12.76973145 31.39407227 12.22623047 31.92797852 11.66625977 C34.49610834 9.0485489 37.28033372 6.70109918 40.09204102 4.35229492 C40.53032227 3.95397461 40.96860352 3.5556543 41.42016602 3.14526367 C41.42016602 2.81526367 41.42016602 2.48526367 41.42016602 2.14526367 C27.23016602 2.14526367 13.04016602 2.14526367 -1.57983398 2.14526367 Z M-3.57983398 5.14526367 C-3.57983398 14.05526367 -3.57983398 22.96526367 -3.57983398 32.14526367 C0.55873678 28.6964547 3.23720957 26.43042531 6.29516602 22.33276367 C6.89071289 21.54256836 7.48625977 20.75237305 8.09985352 19.93823242 C8.53555664 19.34655273 8.97125977 18.75487305 9.42016602 18.14526367 C7.95858242 14.77529113 6.08207721 12.5378124 3.48266602 9.95776367 C2.79301758 9.26295898 2.10336914 8.5681543 1.39282227 7.85229492 C-0.56590531 5.93787621 -0.56590531 5.93787621 -3.57983398 5.14526367 Z M36.35766602 10.64526367 C35.50591797 11.43223633 35.50591797 11.43223633 34.63696289 12.23510742 C33.22932238 13.53628772 31.82448373 14.84049789 30.42016602 16.14526367 C32.04032957 19.85226833 34.35900709 22.71862725 36.92016602 25.83276367 C37.71422852 26.80600586 38.50829102 27.77924805 39.32641602 28.78198242 C41.19663095 31.18887801 41.19663095 31.18887801 43.42016602 32.14526367 C43.42016602 23.23526367 43.42016602 14.32526367 43.42016602 5.14526367 C40.99256631 5.14526367 38.16316228 8.96563629 36.35766602 10.64526367 Z M11.42016602 19.14526367 C10.00315013 20.87414417 8.58656915 22.60338113 7.17016602 24.33276367 C6.38125977 25.29569336 5.59235352 26.25862305 4.77954102 27.25073242 C2.64457852 29.86994966 0.53107739 32.50662445 -1.57983398 35.14526367 C12.61016602 35.14526367 26.80016602 35.14526367 41.42016602 35.14526367 C36.63947879 28.72186104 36.63947879 28.72186104 31.54516602 22.64526367 C30.51391602 21.49026367 29.48266602 20.33526367 28.42016602 19.14526367 C25.78016602 21.12526367 23.14016602 23.10526367 20.42016602 25.14526367 C15.96516602 22.17526367 15.96516602 22.17526367 11.42016602 19.14526367 Z " fill="#888078" transform="translate(5.579833984375,-0.145263671875)"/>
</svg>
