<?xml version="1.0" encoding="UTF-8"?>
<svg version="1.1" xmlns="http://www.w3.org/2000/svg" width="40" height="40">
<path d="M0 0 C4.1248923 1.30789268 6.28756638 4.22731979 8.5625 7.8125 C9.5625 11.0625 9.5625 11.0625 9.5625 13.8125 C8.5725 15.2975 8.5725 15.2975 7.5625 16.8125 C7.74803891 18.80677359 7.74803891 18.80677359 8.5625 20.8125 C8.789375 21.51375 9.01625 22.215 9.25 22.9375 C11.21578614 25.74576591 13.28096525 26.14279903 16.5625 26.8125 C17.5525 26.1525 18.5425 25.4925 19.5625 24.8125 C23.39353042 25.13175253 25.32930553 25.65703702 28.5625 27.8125 C28.5625 28.4725 28.5625 29.1325 28.5625 29.8125 C29.2225 29.8125 29.8825 29.8125 30.5625 29.8125 C32.5625 32.8125 32.5625 32.8125 32.375 35.875 C31.5625 38.8125 31.5625 38.8125 28.5625 40.8125 C20.91832842 42.02253629 15.16947306 40.94032631 8.80859375 36.57421875 C1.43792174 30.79304818 -4.4299537 23.83513891 -7.4375 14.8125 C-7.89715684 10.13932216 -8.14665851 7.13536279 -5.25 3.3125 C-2.4375 0.8125 -2.4375 0.8125 0 0 Z M-3.125 4.8125 C-5.22870131 8.01814009 -5.00294316 11.16341914 -4.4375 14.8125 C-1.46290605 24.70798253 7.32555996 32.96397698 16.1328125 37.8203125 C19.92256981 39.36789828 22.51221102 39.38096161 26.5625 38.8125 C27.5525 38.1525 28.5425 37.4925 29.5625 36.8125 C29.24504193 33.95537741 28.30153475 32.42105212 26.6875 30 C22.47738714 27.052921 20.063419 27.97030164 15.15625 28.65625 C12.5625 28.8125 12.5625 28.8125 9.5625 27.25 C7.21292894 24.38646028 5.70284544 22.3676946 4.5625 18.8125 C5.00390625 16.63671875 5.00390625 16.63671875 5.6875 14.3125 C6.63203704 11.05015243 6.63203704 11.05015243 5.69921875 7.90234375 C4.25378136 5.99710186 4.25378136 5.99710186 1.5625 3.8125 C-1.33427829 3.5575988 -1.33427829 3.5575988 -3.125 4.8125 Z " fill="#888078" transform="translate(7.4375,-0.8125)"/>
</svg>
